<?xml version="1.0" encoding="UTF-8"?>
<svg id="Layer_1" data-name="Layer 1" xmlns="http://www.w3.org/2000/svg" viewBox="0 0 1366.10256 769">
  <defs>
    <style>
      .cls-1 {
        fill: #e5b642;
      }

      .cls-1, .cls-2, .cls-3, .cls-4, .cls-5, .cls-6, .cls-7, .cls-8, .cls-9, .cls-10, .cls-11, .cls-12, .cls-13, .cls-14, .cls-15 {
        stroke: #000;
        stroke-miterlimit: 10;
      }

      .cls-1, .cls-2, .cls-4, .cls-5, .cls-6, .cls-7, .cls-9, .cls-10, .cls-11, .cls-12, .cls-15 {
        stroke-width: 2px;
      }

      .cls-16 {
        fill: #666;
      }

      .cls-16, .cls-17, .cls-18, .cls-19, .cls-20, .cls-21, .cls-22, .cls-23, .cls-24, .cls-25 {
        stroke-width: 0px;
      }

      .cls-17, .cls-12 {
        fill: #d439e5;
      }

      .cls-2 {
        fill: #edcc0c;
      }

      .cls-18 {
        fill: #f98d2b;
        fill-rule: evenodd;
      }

      .cls-3, .cls-8, .cls-10, .cls-13 {
        fill: none;
      }

      .cls-4, .cls-14 {
        fill: #e2e2e2;
      }

      .cls-5 {
        fill: #898989;
      }

      .cls-20 {
        fill: #ddd;
      }

      .cls-6 {
        fill: #d8d8d8;
      }

      .cls-21 {
        fill: #93a5d8;
      }

      .cls-7 {
        fill: #dd5900;
      }

      .cls-8 {
        stroke-width: .25px;
      }

      .cls-22 {
        fill: #f683ff;
      }

      .cls-23 {
        fill: #d3d31e;
      }

      .cls-24 {
        fill: #fff;
      }

      .cls-26 {
        opacity: .47;
      }

      .cls-11 {
        fill: #ce7413;
      }

      .cls-27 {
        font-family: MyriadPro-BoldCondIt, 'Myriad Pro';
        font-size: 52.24729px;
        font-style: italic;
        font-weight: 700;
      }

      .cls-13 {
        stroke-width: 5px;
      }

      .cls-28 {
        letter-spacing: .01699em;
      }

      .cls-25 {
        fill: #9cecff;
      }

      .cls-29 {
        letter-spacing: -.03098em;
      }

      .cls-15 {
        fill: #b71d1d;
      }
    </style>
  </defs>
  <g>
    <rect class="cls-22" x="1.07692" y="1" width="1364" height="577"/>
    <path class="cls-19" d="m1364.07692,2v575H2.07692V2h1362m2-2H.07692v579h1366V0h0Z"/>
  </g>
  <rect class="cls-5" x="1" y="579" width="1364.10256" height="189"/>
  <path class="cls-2" d="m677.94196,573.76573v39.81c0,6.57001-5.14001,11.97998-11.60999,12.40997-.28003.02002-.54999.03003-.83002.03003-.13,0-.26001,0-.39996-.02002-.13.02002-.28003.02002-.42999.02002h-8.29004c-1.65997,0-3.23999-.41003-4.62-1.14001v-.01001c-3.15997-1.65997-5.33002-4.98999-5.33002-8.79999,0-2.73999,1.12-5.22998,2.92004-7.03998,1.03998-1.02002,2.29999-1.84003,3.70996-2.33002v-32.92999c0-6.85004,5.59003-12.44,12.44-12.44,3.42004,0,6.54004,1.39001,8.79004,3.64996,2.25995,2.25,3.64996,5.37,3.64996,8.79004Z"/>
  <line class="cls-3" x1="653.06198" y1="616.06573" x2="651.76198" y2="624.86573"/>
  <line class="cls-3" x1="658.03957" y1="626.01573" x2="658.03957" y2="619.38062"/>
  <line class="cls-3" x1="666.33346" y1="626.01573" x2="666.33346" y2="619.38062"/>
  <path class="cls-2" d="m1048.38826,572.61573v39.81c0,6.57001,5.04659,11.97998,11.39897,12.40997.27494.02002.53999.03003.81493.03003.12764,0,.25528,0,.39269-.02002.12764.02002.27494.02002.42218.02002h8.13936c1.6298,0,3.1811-.41003,4.53602-1.14001v-.01001c3.10254-1.65997,5.23314-4.98999,5.23314-8.79999,0-2.73999-1.09964-5.22998-2.86697-7.03998-1.02108-1.02002-2.25818-1.84003-3.64253-2.33002v-32.92999c0-6.85004-5.48843-12.44-12.2139-12.44-3.35788,0-6.42117,1.39001-8.63028,3.64996-2.21887,2.25-3.58362,5.37-3.58362,8.79004Z"/>
  <line class="cls-3" x1="1072.81605" y1="614.91573" x2="1074.09242" y2="623.71573"/>
  <line class="cls-3" x1="1067.92892" y1="624.86573" x2="1067.92892" y2="618.23062"/>
  <line class="cls-3" x1="1059.78578" y1="624.86573" x2="1059.78578" y2="618.23062"/>
  <path class="cls-2" d="m756.65244,621.56303v39.81c0,6.57001-5.14001,11.97998-11.60999,12.40997-.28003.02002-.54999.03003-.83002.03003-.13,0-.26001,0-.39996-.02002-.13.02002-.28003.02002-.42999.02002h-8.29004c-1.65997,0-3.23999-.41003-4.62-1.14001v-.01001c-3.15997-1.65997-5.33002-4.98999-5.33002-8.79999,0-2.73999,1.12-5.22998,2.92004-7.03998,1.03998-1.02002,2.29999-1.84003,3.70996-2.33002v-32.92999c0-6.85004,5.59003-12.44,12.44-12.44,3.42004,0,6.54004,1.39001,8.79004,3.64996,2.25995,2.25,3.64996,5.37,3.64996,8.79004Z"/>
  <line class="cls-3" x1="731.77246" y1="663.86303" x2="730.47246" y2="672.66303"/>
  <line class="cls-3" x1="736.75005" y1="673.81303" x2="736.75005" y2="667.17792"/>
  <line class="cls-3" x1="745.04393" y1="673.81303" x2="745.04393" y2="667.17792"/>
  <path class="cls-2" d="m966.06981,621.56303v39.81c0,6.57001,5.04659,11.97998,11.39897,12.40997.27494.02002.53999.03003.81493.03003.12764,0,.25528,0,.39269-.02002.12764.02002.27494.02002.42218.02002h8.13936c1.6298,0,3.1811-.41003,4.53602-1.14001v-.01001c3.10254-1.65997,5.23314-4.98999,5.23314-8.79999,0-2.73999-1.09964-5.22998-2.86697-7.03998-1.02108-1.02002-2.25818-1.84003-3.64253-2.33002v-32.92999c0-6.85004-5.48843-12.44-12.2139-12.44-3.35788,0-6.42117,1.39001-8.63028,3.64996-2.21887,2.25-3.58362,5.37-3.58362,8.79004Z"/>
  <line class="cls-3" x1="990.49759" y1="663.86303" x2="991.77396" y2="672.66303"/>
  <line class="cls-3" x1="985.61047" y1="673.81303" x2="985.61047" y2="667.17792"/>
  <line class="cls-3" x1="977.46733" y1="673.81303" x2="977.46733" y2="667.17792"/>
  <ellipse class="cls-15" cx="335.35897" cy="616.06573" rx="209.64103" ry="27.50867"/>
  <ellipse class="cls-15" cx="336.58974" cy="616.06573" rx="182.15385" ry="16.96899"/>
  <g>
    <path class="cls-16" d="m1148.48708,315.89746c-3.52051,0-6.38477-2.86426-6.38477-6.38477s2.86426-6.38428,6.38477-6.38428h190.76953c3.52051,0,6.38477,2.86377,6.38477,6.38428s-2.86426,6.38477-6.38477,6.38477h-190.76953Z"/>
    <path class="cls-19" d="m1339.25637,304.1282c2.96912,0,5.38464,2.41553,5.38464,5.38461s-2.41553,5.38461-5.38464,5.38461h-190.76917c-2.96912,0-5.38464-2.41553-5.38464-5.38461s2.41553-5.38461,5.38464-5.38461h190.76917m0-2h-190.76917c-4.06152,0-7.38464,3.32309-7.38464,7.38461s3.32312,7.38461,7.38464,7.38461h190.76917c4.06165,0,7.38464-3.32306,7.38464-7.38461s-3.323-7.38461-7.38464-7.38461h0Z"/>
  </g>
  <g>
    <rect class="cls-21" x="1170.82009" y="295.74365" width="66.51367" height="125.99951" rx="11" ry="11"/>
    <path class="cls-19" d="m1226.33339,296.74359c5.51404,0,10,4.48599,10,10v104c0,5.51401-4.48596,10-10,10h-44.51294c-5.51404,0-10-4.48599-10-10v-104c0-5.51401,4.48596-10,10-10h44.51294m0-2h-44.51294c-6.59998,0-12,5.39999-12,12v104c0,6.60001,5.40002,12,12,12h44.51294c6.59998,0,12-5.39999,12-12v-104c0-6.60001-5.40002-12-12-12h0Z"/>
  </g>
  <g>
    <rect class="cls-21" x="1253.282" y="295.74365" width="68.56445" height="186.71826" rx="11" ry="11"/>
    <path class="cls-19" d="m1310.84621,296.74359c5.51404,0,10,4.48599,10,10v164.71796c0,5.51401-4.48596,10-10,10h-46.56421c-5.51404,0-10-4.48599-10-10v-164.71796c0-5.51401,4.48596-10,10-10h46.56421m0-2h-46.56421c-6.59998,0-12,5.39999-12,12v164.71796c0,6.59998,5.40002,12,12,12h46.56421c6.59998,0,12-5.40002,12-12v-164.71796c0-6.60001-5.40002-12-12-12h0Z"/>
  </g>
  <g>
    <rect class="cls-20" x="520.70583" y="1.5" width="2.89893" height="102.27832" rx=".60254" ry=".60254"/>
    <path class="cls-19" d="m523.00209,0h-1.69354c-1.15637,0-2.10254.94614-2.10254,2.10256v101.07316c0,1.15642.94617,2.10255,2.10254,2.10255h1.69354c1.15643,0,2.1026-.94614,2.1026-2.10255V2.10256C525.10469.94614,524.15853,0,523.00209,0h0Z"/>
  </g>
  <g>
    <path class="cls-19" d="m522.15554,118.88477c-9.76367,0-17.70703-5.03906-17.70703-11.23242,0-6.19385,7.94336-11.23291,17.70703-11.23291,9.76318,0,17.70654,5.03906,17.70654,11.23291,0,6.19336-7.94336,11.23242-17.70654,11.23242Z"/>
    <path class="cls-19" d="m522.15535,97.91966c8.78491,0,16.2066,4.45692,16.2066,9.73248s-7.42169,9.73248-16.2066,9.73248-16.20663-4.45692-16.20663-9.73248,7.42172-9.73248,16.20663-9.73248m0-3c-10.60754,0-19.20663,5.70052-19.20663,12.73248s8.59909,12.73248,19.20663,12.73248,19.2066-5.70052,19.2066-12.73248-8.59912-12.73248-19.2066-12.73248h0Z"/>
  </g>
  <ellipse class="cls-23" cx="522.15533" cy="116.23583" rx="12.51667" ry="4.14878"/>
  <rect class="cls-4" x="431.46154" y="375.46154" width="14.04288" height="26.76923"/>
  <rect class="cls-14" x="434.97226" y="382.15385" width="7.02144" height="13.38462"/>
  <line class="cls-8" x1="434.97226" y1="388.84615" x2="441.99369" y2="388.84615"/>
  <g id="CAT">
    <g>
      <path class="cls-18" d="m1016.25954,453.78711c.26953-7.24414,3.46191-14.24512,9.05664-19.81152l.3623-.36035-3.58594-22.79688,17.38477,14.05859h.52539l.1709-.05762c4.84863-1.71289,10.00586-2.58203,15.32715-2.58203,8.625,0,16.80273,2.27441,23.64746,6.57617l.24414.15332h22.78906l-11.87891,10.72656.41895.7041c2.50195,4.20898,3.85352,8.70801,4.02148,13.38965h-78.4834Z"/>
      <path class="cls-19" d="m1023.48397,413.22968l15.08929,12.20239.56006.44485h1.05054l.32349-.11432c4.74194-1.67593,9.7865-2.5257,14.99353-2.5257,8.43677,0,16.43005,2.22116,23.11572,6.42334l.48804.3067h20.47717l-9.34143,8.43564-1.21606,1.09818.83752,1.40839c2.23022,3.75034,3.5127,7.7373,3.82422,11.87775h-76.36786c.51251-6.6199,3.55725-12.98257,8.70319-18.10211l.72375-.72003-.15857-1.00854-3.1026-19.72653m-2.78308-4.82278l3.90997,24.86005c-5.85004,5.82001-9.37006,13.32001-9.37006,21.51996h80.52008c0-5.35999-1.51001-10.40997-4.18005-14.89996l13.19995-11.91998h-25.09985c-6.72998-4.23004-15.1001-6.73004-24.18005-6.73004-5.55994,0-10.84998.94-15.66003,2.64001h-.01001l-19.12994-15.47003h0Z"/>
    </g>
    <line class="cls-10" x1="1036.59128" y1="446.88357" x2="1039.69231" y2="435.5641"/>
    <line class="cls-10" x1="1043.84615" y1="446.69231" x2="1039.61425" y2="434.88852"/>
    <line class="cls-10" x1="1069.38462" y1="447.15385" x2="1072" y2="435.69231"/>
    <line class="cls-10" x1="1076.30769" y1="446.53846" x2="1072.10256" y2="436.30769"/>
  </g>
  <g class="cls-26">
    <ellipse class="cls-24" cx="662.84615" cy="449.22152" rx="19.38462" ry="17.62464"/>
  </g>
  <g class="cls-26">
    <ellipse class="cls-24" cx="639.25641" cy="462.04203" rx="19.38462" ry="17.62464"/>
  </g>
  <g class="cls-26">
    <ellipse class="cls-24" cx="689.51282" cy="459.35897" rx="19.38462" ry="17.62464"/>
  </g>
  <g class="cls-26">
    <ellipse class="cls-24" cx="685.61538" cy="433.71795" rx="19.38462" ry="17.62464"/>
  </g>
  <g class="cls-26">
    <ellipse class="cls-24" cx="921.10256" cy="441.73434" rx="19.38462" ry="17.62464"/>
  </g>
  <g class="cls-26">
    <ellipse class="cls-24" cx="893.82051" cy="453.35265" rx="19.38462" ry="17.62464"/>
  </g>
  <g class="cls-26">
    <ellipse class="cls-24" cx="737.51282" cy="462.04203" rx="19.38462" ry="17.62464"/>
  </g>
  <g class="cls-26">
    <ellipse class="cls-24" cx="719.05128" cy="446.81337" rx="19.38462" ry="17.62464"/>
  </g>
  <g class="cls-26">
    <ellipse class="cls-24" cx="656.69231" cy="466.84615" rx="19.38462" ry="17.62464"/>
  </g>
  <g class="cls-26">
    <ellipse class="cls-24" cx="645.41026" cy="431.59688" rx="19.38462" ry="17.62464"/>
  </g>
  <g class="cls-26">
    <ellipse class="cls-24" cx="624.07692" cy="443.5641" rx="19.38462" ry="17.62464"/>
  </g>
  <g class="cls-26">
    <ellipse class="cls-24" cx="611.15385" cy="451.34258" rx="19.38462" ry="17.62464"/>
  </g>
  <g class="cls-26">
    <ellipse class="cls-24" cx="971.25641" cy="448.69231" rx="19.38462" ry="17.62464"/>
  </g>
  <g class="cls-26">
    <ellipse class="cls-24" cx="951.87179" cy="462.04203" rx="19.38462" ry="17.62464"/>
  </g>
  <g class="cls-26">
    <ellipse class="cls-24" cx="879.46154" cy="435.72801" rx="19.38462" ry="17.62464"/>
  </g>
  <g class="cls-26">
    <ellipse class="cls-24" cx="857.10256" cy="447.66667" rx="19.38462" ry="17.62464"/>
  </g>
  <g class="cls-26">
    <ellipse class="cls-24" cx="719.05128" cy="465.87173" rx="5.61538" ry="5.10555"/>
  </g>
  <g class="cls-26">
    <ellipse class="cls-24" cx="753" cy="476.98361" rx="5.61538" ry="5.10555"/>
  </g>
  <g class="cls-26">
    <ellipse class="cls-24" cx="758.61538" cy="445.53846" rx="5.61538" ry="5.10555"/>
  </g>
  <g class="cls-26">
    <ellipse class="cls-24" cx="658.64103" cy="441.73434" rx="5.61538" ry="5.10555"/>
  </g>
  <g class="cls-26">
    <ellipse class="cls-24" cx="587.69231" cy="465.2913" rx="5.61538" ry="5.10555"/>
  </g>
  <g class="cls-26">
    <ellipse class="cls-24" cx="616.76923" cy="469.54356" rx="5.61538" ry="5.10555"/>
  </g>
  <g class="cls-26">
    <ellipse class="cls-24" cx="608.61538" cy="428.49016" rx="5.61538" ry="5.10555"/>
  </g>
  <g class="cls-26">
    <ellipse class="cls-24" cx="626.76923" cy="390.61538" rx="5.61538" ry="5.10555"/>
  </g>
  <g class="cls-26">
    <ellipse class="cls-24" cx="664.79487" cy="413.97225" rx="5.61538" ry="5.10555"/>
  </g>
  <g class="cls-26">
    <ellipse class="cls-24" cx="681.69231" cy="479.66667" rx="5.61538" ry="5.10555"/>
  </g>
  <g class="cls-26">
    <ellipse class="cls-24" cx="716.92308" cy="419.07779" rx="5.61538" ry="5.10555"/>
  </g>
  <g class="cls-26">
    <ellipse class="cls-24" cx="700.92308" cy="444.41739" rx="5.61538" ry="5.10555"/>
  </g>
  <g class="cls-26">
    <ellipse class="cls-24" cx="961.46154" cy="471" rx="5.61538" ry="5.10555"/>
  </g>
  <g class="cls-26">
    <ellipse class="cls-24" cx="835.51282" cy="454.78688" rx="5.61538" ry="5.10555"/>
  </g>
  <g class="cls-26">
    <ellipse class="cls-24" cx="865.69231" cy="436.17322" rx="5.61538" ry="5.10555"/>
  </g>
  <g class="cls-26">
    <ellipse class="cls-24" cx="872.23077" cy="419.51282" rx="5.61538" ry="5.10555"/>
  </g>
  <g class="cls-26">
    <ellipse class="cls-24" cx="878.38462" cy="458.89744" rx="5.61538" ry="5.10555"/>
  </g>
  <g class="cls-26">
    <ellipse class="cls-24" cx="903.30769" cy="424.1097" rx="5.61538" ry="5.10555"/>
  </g>
  <g class="cls-26">
    <ellipse class="cls-24" cx="921.10256" cy="467.14758" rx="5.61538" ry="5.10555"/>
  </g>
  <g class="cls-26">
    <ellipse class="cls-24" cx="990.07692" cy="453.35265" rx="5.61538" ry="5.10555"/>
  </g>
  <g class="cls-26">
    <ellipse class="cls-24" cx="971.82051" cy="421.76923" rx="5.61538" ry="5.10555"/>
  </g>
  <g class="cls-26">
    <ellipse class="cls-24" cx="941.66667" cy="443.58676" rx="5.61538" ry="5.10555"/>
  </g>
  <g class="cls-26">
    <ellipse class="cls-24" cx="984.46154" cy="475.61538" rx="5.61538" ry="5.10555"/>
  </g>
  <g class="cls-26">
    <ellipse class="cls-24" cx="916.74359" cy="397.5641" rx="5.61538" ry="5.10555"/>
  </g>
  <g class="cls-26">
    <ellipse class="cls-24" cx="931.38462" cy="416.66368" rx="5.61538" ry="5.10555"/>
  </g>
  <g class="cls-26">
    <ellipse class="cls-24" cx="910.58974" cy="456.93648" rx="5.61538" ry="5.10555"/>
  </g>
  <rect class="cls-9" x="242.07692" y="237.27451" width="173.77172" height="340.42371"/>
  <g id="DOOR">
    <rect class="cls-11" x="241.96278" y="236.18459" width="174" height="342.60355"/>
    <rect class="cls-11" x="258.46278" y="253.88578" width="141" height="309.48521"/>
    <circle class="cls-19" cx="379.96278" cy="413.78814" r="6"/>
    <line class="cls-13" x1="358.96278" y1="414.28814" x2="375.96278" y2="414.28814"/>
  </g>
  <g id="MADCAT">
    <g id="MADCAT-2" data-name="MADCAT">
      <path class="cls-18" d="m1016.25954,453.99219c.26953-7.24414,3.46191-14.24512,9.05664-19.81152l.3623-.36035-3.58594-22.79688,17.38477,14.05859h.52539l.1709-.05762c4.84863-1.71289,10.00586-2.58203,15.32715-2.58203,8.625,0,16.80273,2.27441,23.64746,6.57617l.24414.15332h22.78906l-11.87891,10.72656.41895.7041c2.50195,4.20898,3.85352,8.70801,4.02148,13.38965h-78.4834Z"/>
      <path class="cls-19" d="m1023.48397,413.43478l15.08929,12.20239.56006.44485h1.05054l.32349-.11432c4.74194-1.67593,9.7865-2.5257,14.99353-2.5257,8.43677,0,16.43005,2.22116,23.11572,6.42334l.48804.3067h20.47717l-9.34143,8.43564-1.21606,1.09818.83752,1.40839c2.23022,3.75034,3.5127,7.7373,3.82422,11.87775h-76.36786c.51251-6.6199,3.55725-12.98257,8.70319-18.10211l.72375-.72003-.15857-1.00854-3.1026-19.72653m-2.78308-4.82278l3.90997,24.86005c-5.85004,5.82001-9.37006,13.32001-9.37006,21.51996h80.52008c0-5.35999-1.51001-10.40997-4.18005-14.89996l13.19995-11.91998h-25.09985c-6.72998-4.23004-15.1001-6.73004-24.18005-6.73004-5.55994,0-10.84998.94-15.66003,2.64001h-.01001l-19.12994-15.47003h0Z"/>
    </g>
    <line class="cls-10" x1="1036.46418" y1="435.17238" x2="1045.21822" y2="442.9899"/>
    <line class="cls-10" x1="1033.40457" y1="441.75331" x2="1045.85787" y2="443.22088"/>
    <line class="cls-10" x1="1079.50771" y1="441.38711" x2="1068.03216" y2="443.94031"/>
    <line class="cls-10" x1="1075.98251" y1="435.39706" x2="1068.54408" y2="443.58372"/>
  </g>
  <g id="DOORMAN">
    <ellipse class="cls-1" cx="383.07817" cy="378.31582" rx="26.75641" ry="23.70701"/>
    <g>
      <path class="cls-1" d="m436.62565,357.12216c.26067.63887.41951,1.31929.48199,2.02821l2.77609,33.11529c.10485,1.21003-.12292,2.37226-.59677,3.40799-.01517,1.84227-.77495,3.6859-2.23642,5.02744l-24.50433,22.45108c-.90608.8233-1.97013,1.36542-3.08439,1.62567-.28289.18023-.59559.34024-.91969.47248l-30.77672,12.55748c-3.51839,1.43557-7.58585-.27454-9.0252-3.8022-.72158-1.76849-.64918-3.65566.04144-5.29831.68514-1.6296,1.99229-3.0054,3.75146-3.72317l30.77672-12.55748c.23147-.09445.46673-.17962.70406-.23322l21.95779-20.11598-2.66838-31.76595c-.3196-3.80095,2.52996-7.16687,6.32161-7.48274,3.08273-.25339,5.88631,1.56206,7.00075,4.2934Z"/>
      <circle class="cls-1" cx="436.05" cy="355.71134" r="15.38462"/>
      <rect class="cls-1" x="428.93941" y="339.97446" width="2.76923" height="10.30769" rx="1.38461" ry="1.38461" transform="translate(-98.49396 188.14469) rotate(-22.19638)"/>
      <rect class="cls-1" x="423.27291" y="346.72983" width="2.76923" height="10.30769" rx="1.38461" ry="1.38461" transform="translate(-117.84904 451.09436) rotate(-50.00957)"/>
      <rect class="cls-1" x="444.38561" y="343.64026" width="2.76923" height="10.30769" rx="1.38461" ry="1.38461" transform="translate(403.70439 -215.65154) rotate(47.69636)"/>
      <rect class="cls-1" x="436.56742" y="338.83567" width="2.76923" height="10.30769" rx="1.38461" ry="1.38461" transform="translate(-6.54446 8.49937) rotate(-1.10366)"/>
    </g>
    <g id="DOORMAN-2" data-name="DOORMAN">
      <polygon class="cls-11" points="388.34615 634.62388 242.03846 579.16033 242.03846 236.55677 389.57692 291.85465 388.34615 634.62388"/>
      <polygon class="cls-11" points="374.03846 606.31619 258.53846 563.74317 258.53846 258.62388 374.03846 301.7008 374.03846 606.31619"/>
      <circle class="cls-19" cx="356.34615" cy="431.54494" r="6"/>
      <line class="cls-13" x1="356.24046" y1="452.10134" x2="356.44558" y2="427.43467"/>
    </g>
    <g>
      <path class="cls-24" d="m431.74294,299.82764l-.93896-.16748c-2.9668-.5293-5.12012-3.09717-5.12012-6.10693v-34.26611c0-3.42139,2.78369-6.20508,6.20508-6.20508h106.39551c3.42139,0,6.20508,2.78369,6.20508,6.20508v34.26611c0,3.42139-2.78369,6.20508-6.20508,6.20508h-88.69629l-20.45264,20.12695,2.60742-20.05762Z"/>
      <path class="cls-19" d="m538.2845,254.082c2.87012,0,5.20514,2.33499,5.20514,5.20511v34.26627c0,2.87009-2.33502,5.20511-5.20514,5.20511h-89.10556l-.58377.57446-18.09406,17.80573,2.11047-16.23645.24591-1.89197-1.87827-.33481c-2.4888-.44363-4.2952-2.59778-4.2952-5.12207v-34.26627c0-2.87012,2.33499-5.20511,5.20511-5.20511h106.39536m0-2h-106.39536c-3.9628,0-7.20511,3.24231-7.20511,7.20511v34.26627c0,3.53052,2.57581,6.4906,5.94421,7.09103l-2.858,21.98758,22.22772-21.8735h88.28653c3.96283,0,7.20514-3.24231,7.20514-7.20511v-34.26627c0-3.9628-3.24231-7.20511-7.20514-7.20511h0Z"/>
    </g>
    <g>
      <path class="cls-19" d="m435.47243,285.00293l1.54932-4.89893h-1.79932l.34961-1.74951h2l.94971-3.07422h-1.8999l.3252-1.72461h2.09961l1.47461-4.79883h1.77441l-1.47461,4.79883h1.77441l1.49951-4.79883h1.7749l-1.5,4.79883h1.7998l-.3501,1.72461h-1.99951l-.89941,3.07422h1.87451l-.3252,1.72461h-2.09912l-1.5249,4.92383h-1.79932l1.54932-4.92383h-1.79932l-1.5249,4.92383h-1.79932Zm5.67334-6.64844l.8999-3.07422h-1.77441l-.9248,3.07422h1.79932Z"/>
      <path class="cls-19" d="m453.84499,271.83105c0,3.67432-1.87451,6.69824-4.22412,6.69824-1.77441,0-2.77393-1.27441-2.77393-3.39893,0-3.07422,1.69922-6.54834,4.27393-6.54834,2.14941,0,2.72412,1.74951,2.72412,3.24902Zm-6.27344,13.37207l11.82227-16.646h1.72461l-11.79736,16.646h-1.74951Zm1.4248-9.77295c0,.8999.22461,1.3999.74951,1.3999,1.4248,0,1.94971-4.42383,1.94971-5.29883,0-.625-.125-1.24951-.72461-1.24951-1.3999,0-1.97461,3.84863-1.97461,5.14844Zm12.99658,2.99951c0,3.67383-1.87451,6.69824-4.22363,6.69824-1.7749,0-2.77441-1.2998-2.77441-3.39941,0-3.09912,1.69922-6.54834,4.27393-6.54834,2.14941,0,2.72412,1.74951,2.72412,3.24951Zm-4.87354,3.57422c0,.92432.25,1.42432.7749,1.42432,1.42432,0,1.94922-4.42383,1.94922-5.29883,0-.62451-.125-1.24951-.72461-1.24951-1.3999,0-1.99951,3.84912-1.99951,5.12402Z"/>
      <path class="cls-19" d="m472.14479,269.15674l-2.77441,2.87451.0249.07471,3.52441-.74951-.42529,2.49902-3.32422-.77441-.0249.07471,2.2998,2.87451-2.32471,1.12451-.97461-3.59912-.0752.0752-1.52441,3.59912-1.99951-1.32471,2.82422-2.87451-.0752-.0249-3.47412.84961.42529-2.49902,3.19922.74951.0498-.07471-2.19971-2.92432,2.2998-1.125.94971,3.52441h.07471l1.375-3.54932,2.14941,1.19971Z"/>
      <path class="cls-19" d="m480.4197,285.00293c-.19971-.3501-.3999-.625-.59961-1.07471-1.07471.82471-2.27441,1.2749-3.74902,1.2749-2.6748,0-4.09912-1.9248-4.09912-3.97412,0-2.64941,1.67432-4.27393,3.77393-5.42383v-.0752c-.625-1.24951-.7749-2.19922-.7749-2.99902-.0249-2.94922,2.1748-4.77393,4.59912-4.77393,2.67432,0,3.52393,1.84961,3.52393,3.37402,0,1.7749-1.07471,3.49951-3.94873,5.07422v.12451c.5498,1,1.32422,2.72461,1.87451,3.59912.77441-1.24951,1.22461-2.82422,1.54932-4.09863h2.57471c-.55029,2.29932-1.75,4.64893-3.12451,6.07324.3501.6499.97461,1.69971,1.69971,2.89941h-3.29932Zm-1.57471-2.92432c-.69971-1.19971-1.57471-2.92432-2.19922-4.34912-.8501.5752-1.6499,1.57471-1.6499,2.99951,0,1.24951.7998,2.17432,1.875,2.17432.7998,0,1.47461-.32471,1.97412-.82471Zm-1.0498-9.57275c0,.8501.17529,1.47461.4751,2.0498,1.24951-.8252,2.09961-1.99951,2.09961-3.29932,0-.75-.2002-1.2749-1-1.2749-.97461,0-1.57471,1.19971-1.57471,2.52441Z"/>
      <path class="cls-19" d="m496.29421,280.5791l-3.79932-9.02295h-.1499l-3.79932,9.02295h-2.44922l5.29883-11.82227h2.09961l5.27344,11.82227h-2.47412Z"/>
      <path class="cls-19" d="m509.6194,269.15674l-2.77441,2.87451.0249.07471,3.52441-.74951-.42529,2.49902-3.32422-.77441-.0249.07471,2.2998,2.87451-2.32471,1.12451-.97461-3.59912-.0752.0752-1.52441,3.59912-1.99951-1.32471,2.82422-2.87451-.0752-.0249-3.47412.84961.42529-2.49902,3.19922.74951.0498-.07471-2.19971-2.92432,2.2998-1.125.94971,3.52441h.07471l1.375-3.54932,2.14941,1.19971Z"/>
      <path class="cls-19" d="m517.4944,271.83105c0,3.67432-1.87451,6.69824-4.22412,6.69824-1.77441,0-2.77393-1.27441-2.77393-3.39893,0-3.07422,1.69922-6.54834,4.27393-6.54834,2.14941,0,2.72412,1.74951,2.72412,3.24902Zm-6.27344,13.37207l11.82227-16.646h1.72461l-11.79736,16.646h-1.74951Zm1.4248-9.77295c0,.8999.22461,1.3999.74951,1.3999,1.4248,0,1.94971-4.42383,1.94971-5.29883,0-.625-.125-1.24951-.72461-1.24951-1.3999,0-1.97461,3.84863-1.97461,5.14844Zm12.99658,2.99951c0,3.67383-1.87451,6.69824-4.22363,6.69824-1.7749,0-2.77441-1.2998-2.77441-3.39941,0-3.09912,1.69922-6.54834,4.27393-6.54834,2.14941,0,2.72412,1.74951,2.72412,3.24951Zm-4.87354,3.57422c0,.92432.25,1.42432.7749,1.42432,1.42432,0,1.94922-4.42383,1.94922-5.29883,0-.62451-.125-1.24951-.72461-1.24951-1.3999,0-1.99951,3.84912-1.99951,5.12402Z"/>
      <path class="cls-19" d="m528.59597,287.12744l.5249-2.54932c-1-.05029-1.9248-.3501-2.39941-.6001l.74951-2.37451c.6499.30029,1.2998.5752,2.27441.5752,1.5249,0,2.27441-.97461,2.27441-2.0498,0-1.07471-.44971-1.69922-1.34961-2.44922-1.67432-1.4248-2.17432-2.64941-2.17432-3.99902,0-1.79932,1.1499-3.89893,3.89893-4.39893l.3999-2.39941h1.87451l-.44971,2.29932c.75.02539,1.57471.25,2.02441.5498l-.7998,2.32471c-.5249-.2749-1.12451-.4751-1.87451-.4751-1.19971,0-2.02441.8252-2.02441,1.82471,0,.7998.2749,1.3999,1.54932,2.42432,1.5249,1.19971,1.9248,2.54932,1.9248,3.77441,0,2.72412-1.72461,4.59863-4.07422,4.89844l-.47461,2.62451h-1.87451Z"/>
    </g>
  </g>
  <rect class="cls-7" x="722.53846" y="105.27829" width="292.70234" height="235.04438"/>
  <g>
    <rect class="cls-25" x="739.4363" y="121.38477" width="259.53809" height="201.89746"/>
    <path class="cls-19" d="m997.97438,122.3846v199.89748h-257.53851V122.3846h257.53851m2-2h-261.53851v203.89748h261.53851V120.3846h0Z"/>
  </g>
  <ellipse class="cls-24" cx="805.29487" cy="176.07692" rx="24.60256" ry="13.23077"/>
  <ellipse class="cls-24" cx="827.72578" cy="173.92308" rx="17.27422" ry="8"/>
  <ellipse class="cls-24" cx="795.30769" cy="163.76923" rx="20.76923" ry="10.15385"/>
  <ellipse class="cls-24" cx="818.97921" cy="162.54702" rx="18.73874" ry="11.08548"/>
  <ellipse class="cls-24" cx="802.84615" cy="152.53846" rx="11.69231" ry="7.84615"/>
  <ellipse class="cls-24" cx="776.23077" cy="175.15385" rx="23.23077" ry="9.23077"/>
  <ellipse class="cls-24" cx="873.15385" cy="197" rx="22.30769" ry="10.76923"/>
  <ellipse class="cls-24" cx="905.97436" cy="188.84615" rx="26.51282" ry="10.92308"/>
  <ellipse class="cls-24" cx="921.21795" cy="197.46154" rx="26.0641" ry="2.30769"/>
  <ellipse class="cls-24" cx="935.3462" cy="196.15385" rx="14.24363" ry="7.30769"/>
  <ellipse class="cls-24" cx="938.95513" cy="185.65732" rx="17.73718" ry="9.5804"/>
  <ellipse class="cls-24" cx="897.88462" cy="179.00855" rx="11.03846" ry="5.37606"/>
  <ellipse class="cls-24" cx="919.35897" cy="174.71328" rx="17.64103" ry="10.94405"/>
  <ellipse class="cls-24" cx="947.37423" cy="174.251" rx="13.62577" ry="6.78946"/>
  <ellipse class="cls-24" cx="876.46154" cy="295.15385" rx="26.84615" ry="8.30769"/>
  <ellipse class="cls-24" cx="898.5641" cy="284.07692" rx="18.17949" ry="11.07692"/>
  <ellipse class="cls-24" cx="912.84615" cy="291.61538" rx="16.76923" ry="7.53846"/>
  <ellipse class="cls-24" cx="926.5" cy="279.92308" rx="17.57692" ry="6.92308"/>
  <ellipse class="cls-24" cx="913.44231" cy="270.53846" rx="13.05769" ry="7.07692"/>
  <ellipse class="cls-24" cx="935.41788" cy="290.53846" rx="11.95635" ry="6.46154"/>
  <ellipse class="cls-24" cx="945.76923" cy="296.48718" rx="10.92308" ry="5.64103"/>
  <ellipse class="cls-24" cx="932.33333" cy="297.46154" rx="12.97436" ry="6"/>
  <ellipse class="cls-24" cx="863.35897" cy="287.53846" rx="25.64103" ry="7.61538"/>
  <ellipse class="cls-24" cx="847.34117" cy="299.80769" rx="23.96653" ry="12.26923"/>
  <ellipse class="cls-24" cx="878.33333" cy="303.46154" rx="15.48718" ry="4.30769"/>
  <ellipse class="cls-24" cx="842.24477" cy="285.69231" rx="10.16785" ry="5.76923"/>
  <ellipse class="cls-24" cx="865.92308" cy="282.23077" rx="5.84615" ry="4.61538"/>
  <ellipse class="cls-24" cx="776.10664" cy="265.46154" rx="19.20921" ry="12.15385"/>
  <ellipse class="cls-24" cx="798.69231" cy="255.30769" rx="16.76923" ry="8.46154"/>
  <ellipse class="cls-24" cx="805.44048" cy="261.07692" rx="18.90202" ry="4.38462"/>
  <ellipse class="cls-24" cx="821.18233" cy="257.22278" rx="14.33049" ry="8.22278"/>
  <ellipse class="cls-24" cx="823.05128" cy="264.53846" rx="14.66667" ry="4.76923"/>
  <ellipse class="cls-24" cx="796.07692" cy="265.03846" rx="8.30769" ry="3.96154"/>
  <ellipse class="cls-24" cx="821.05128" cy="247.84615" rx="16.66667" ry="7.46154"/>
  <ellipse class="cls-24" cx="775.76923" cy="253.02698" rx="15.38462" ry="5.18083"/>
  <ellipse class="cls-24" cx="762.23077" cy="273.84615" rx="16" ry="8.38462"/>
  <ellipse class="cls-24" cx="971.30769" cy="254.52698" rx="11.84615" ry="3.68083"/>
  <ellipse class="cls-24" cx="956.74359" cy="257.19231" rx="9.46154" ry="3.88462"/>
  <ellipse class="cls-24" cx="976.42308" cy="259.92308" rx="8.03846" ry="3.53846"/>
  <ellipse class="cls-24" cx="983.46154" cy="251.03846" rx="9.23077" ry="3.19231"/>
  <rect class="cls-7" x="739.46154" y="215.51589" width="259.46154" height="12.71795"/>
  <rect class="cls-7" x="765.75" y="216.04487" width="201.73077" height="12.71795" transform="translate(1089.01923 -644.21154) rotate(90)"/>
  <g id="BUBBLE1">
    <g class="cls-26">
      <ellipse class="cls-24" cx="918.40894" cy="525.96099" rx="36.92308" ry="33.57074" transform="translate(-124.42391 706.54222) rotate(-39.62336)"/>
    </g>
    <g class="cls-26">
      <ellipse class="cls-24" cx="909.76145" cy="490.74962" rx="5.61538" ry="5.10555" transform="translate(-103.95502 692.93768) rotate(-39.62336)"/>
    </g>
    <g class="cls-26">
      <ellipse class="cls-24" cx="910.88717" cy="569.14433" rx="5.61538" ry="5.10555" transform="translate(-153.69168 711.66652) rotate(-39.62336)"/>
    </g>
    <g class="cls-26">
      <ellipse class="cls-24" cx="950.79667" cy="512.16718" rx="5.61538" ry="5.10555" transform="translate(-108.1861 724.02802) rotate(-39.62336)"/>
    </g>
    <g class="cls-26">
      <ellipse class="cls-24" cx="953.19218" cy="526.96149" rx="5.61538" ry="5.10555" transform="translate(-117.07064 728.95468) rotate(-39.62336)"/>
    </g>
  </g>
  <g id="BUBBLE2">
    <g class="cls-26">
      <ellipse class="cls-24" cx="777.97237" cy="522.91286" rx="33.57074" ry="36.92308" transform="translate(-154.74485 616.28016) rotate(-39.62336)"/>
    </g>
    <g class="cls-26">
      <ellipse class="cls-24" cx="742.761" cy="531.56036" rx="5.10555" ry="5.61538" transform="translate(-168.34939 595.81126) rotate(-39.62336)"/>
    </g>
    <g class="cls-26">
      <ellipse class="cls-24" cx="821.15571" cy="530.43464" rx="5.10555" ry="5.61538" transform="translate(-149.62054 645.54793) rotate(-39.62336)"/>
    </g>
    <g class="cls-26">
      <ellipse class="cls-24" cx="764.17856" cy="490.52514" rx="5.10555" ry="5.61538" transform="translate(-137.25905 600.04235) rotate(-39.62336)"/>
    </g>
    <g class="cls-26">
      <ellipse class="cls-24" cx="778.97287" cy="488.12962" rx="5.10555" ry="5.61538" transform="translate(-132.33239 608.92688) rotate(-39.62336)"/>
    </g>
  </g>
  <g id="BUBBLE3">
    <g class="cls-26">
      <ellipse class="cls-24" cx="824.94724" cy="498.35983" rx="33.57074" ry="36.92308"/>
    </g>
    <g class="cls-26">
      <ellipse class="cls-24" cx="792.31073" cy="482.56496" rx="5.10555" ry="5.61538"/>
    </g>
    <g class="cls-26">
      <ellipse class="cls-24" cx="853.41242" cy="531.69316" rx="5.10555" ry="5.61538"/>
    </g>
    <g class="cls-26">
      <ellipse class="cls-24" cx="834.9774" cy="464.61624" rx="5.10555" ry="5.61538"/>
    </g>
    <g class="cls-26">
      <ellipse class="cls-24" cx="847.90047" cy="472.20598" rx="5.10555" ry="5.61538"/>
    </g>
  </g>
  <g id="BUBBLE4">
    <g class="cls-26">
      <ellipse class="cls-24" cx="818.92594" cy="544.96134" rx="33.57074" ry="36.92308" transform="translate(-164.54809 524.92685) rotate(-32.4751)"/>
    </g>
    <g class="cls-26">
      <ellipse class="cls-24" cx="854.93969" cy="540.76266" rx="5.10555" ry="5.61538" transform="translate(-156.66203 543.60726) rotate(-32.4751)"/>
    </g>
    <g class="cls-26">
      <ellipse class="cls-24" cx="777.01423" cy="532.12441" rx="5.10555" ry="5.61538" transform="translate(-164.20947 500.41569) rotate(-32.4751)"/>
    </g>
    <g class="cls-26">
      <ellipse class="cls-24" cx="828.58229" cy="578.81379" rx="5.10555" ry="5.61538" transform="translate(-181.21458 535.40535) rotate(-32.4751)"/>
    </g>
    <g class="cls-26">
      <ellipse class="cls-24" cx="813.60488" cy="579.34972" rx="5.10555" ry="5.61538" transform="translate(-183.84444 527.44729) rotate(-32.4751)"/>
    </g>
  </g>
  <g id="BUBBLE5">
    <g class="cls-26">
      <ellipse class="cls-24" cx="725.20631" cy="524.87583" rx="36.92308" ry="33.57074"/>
    </g>
    <g class="cls-26">
      <ellipse class="cls-24" cx="709.41144" cy="557.51234" rx="5.61538" ry="5.10555"/>
    </g>
    <g class="cls-26">
      <ellipse class="cls-24" cx="758.53964" cy="496.41064" rx="5.61538" ry="5.10555"/>
    </g>
    <g class="cls-26">
      <ellipse class="cls-24" cx="691.46272" cy="514.84567" rx="5.61538" ry="5.10555"/>
    </g>
    <g class="cls-26">
      <ellipse class="cls-24" cx="699.05246" cy="501.92259" rx="5.61538" ry="5.10555"/>
    </g>
  </g>
  <g id="BUBBLE6">
    <g class="cls-26">
      <ellipse class="cls-24" cx="652.28092" cy="530.43242" rx="36.92308" ry="33.57074" transform="translate(-179.38695 407.3166) rotate(-30.69726)"/>
    </g>
    <g class="cls-26">
      <ellipse class="cls-24" cx="655.36028" cy="566.5591" rx="5.61538" ry="5.10555" transform="translate(-197.3982 413.95081) rotate(-30.69726)"/>
    </g>
    <g class="cls-26">
      <ellipse class="cls-24" cx="666.41194" cy="488.93915" rx="5.61538" ry="5.10555" transform="translate(-156.22447 408.71634) rotate(-30.69726)"/>
    </g>
    <g class="cls-26">
      <ellipse class="cls-24" cx="618.14518" cy="539.03389" rx="5.61538" ry="5.10555" transform="translate(-188.56123 391.09551) rotate(-30.69726)"/>
    </g>
    <g class="cls-26">
      <ellipse class="cls-24" cx="618.07417" cy="524.04706" rx="5.61538" ry="5.10555" transform="translate(-180.92038 388.95925) rotate(-30.69726)"/>
    </g>
  </g>
  <g id="BUBBLE7">
    <g class="cls-26">
      <ellipse class="cls-24" cx="984.37448" cy="530.9933" rx="36.92308" ry="33.57074" transform="translate(157.74435 1284.40528) rotate(-70.69025)"/>
    </g>
    <g class="cls-26">
      <ellipse class="cls-24" cx="1009.95204" cy="556.6917" rx="5.61538" ry="5.10555" transform="translate(150.61132 1325.74455) rotate(-70.69025)"/>
    </g>
    <g class="cls-26">
      <ellipse class="cls-24" cx="968.53311" cy="490.12241" rx="5.61538" ry="5.10555" transform="translate(185.713 1242.09917) rotate(-70.69025)"/>
    </g>
    <g class="cls-26">
      <ellipse class="cls-24" cx="963.75041" cy="559.52191" rx="5.61538" ry="5.10555" transform="translate(117.01642 1284.03634) rotate(-70.69025)"/>
    </g>
    <g class="cls-26">
      <ellipse class="cls-24" cx="954.06406" cy="548.08579" rx="5.61538" ry="5.10555" transform="translate(121.32588 1267.24042) rotate(-70.69025)"/>
    </g>
  </g>
  <g id="BUBBLE8">
    <g class="cls-26">
      <ellipse class="cls-24" cx="859.12715" cy="532.66601" rx="33.57074" ry="36.92308" transform="translate(-51.4325 971.65766) rotate(-57.53853)"/>
    </g>
    <g class="cls-26">
      <ellipse class="cls-24" cx="889.97118" cy="513.6065" rx="5.10555" ry="5.61538" transform="translate(-21.06194 988.85273) rotate(-57.53853)"/>
    </g>
    <g class="cls-26">
      <ellipse class="cls-24" cx="815.72388" cy="538.79251" rx="5.10555" ry="5.61538" transform="translate(-76.70908 937.87424) rotate(-57.53853)"/>
    </g>
    <g class="cls-26">
      <ellipse class="cls-24" cx="882.21488" cy="559.24026" rx="5.10555" ry="5.61538" transform="translate(-63.15879 1003.44898) rotate(-57.53853)"/>
    </g>
    <g class="cls-26">
      <ellipse class="cls-24" cx="868.87478" cy="566.07048" rx="5.10555" ry="5.61538" transform="translate(-75.10184 995.35746) rotate(-57.53853)"/>
    </g>
  </g>
  <g id="POP">
    <g>
      <rect class="cls-17" x="29.34059" y="28.67383" width="602.04395" height="112.87402" rx="11" ry="11"/>
      <path class="cls-19" d="m620.3846,29.67392c5.51404,0,10,4.486,10,10v90.87384c0,5.51399-4.48596,10-10,10H40.34063c-5.514,0-10-4.48601-10-10V39.67392c0-5.514,4.486-10,10-10h580.04397m0-2H40.34063c-6.6,0-12,5.4-12,12v90.87384c0,6.59999,5.4,12,12,12h580.04397c6.60004,0,12-5.40001,12-12V39.67392c0-6.6-5.39996-12-12-12h0Z"/>
    </g>
    <g>
      <path class="cls-19" d="m56.54811,47.75439c1.85547-.26904,4.20898-.46143,6.10986-.46143,2.03662,0,5.11377.34619,6.96973,2.07666,1.3125,1.19189,1.90039,3.07617,1.90039,4.46045,0,3.61426-2.03613,6.30615-3.93701,7.76709-2.12744,1.53809-5.15967,2.26904-7.69385,2.26904-.49805,0-.99561,0-1.44824-.03857l-2.12695,9.49756h-5.52148l5.74756-25.5708Zm2.80615,12.11279c.36182.03809.72412.03809,1.08594.03809,4.11865,0,5.38574-3.46045,5.38574-5.72949,0-1.72998-.95068-2.96045-3.16797-2.96045-.54297,0-1.04102.03857-1.35791.11523l-1.9458,8.53662Z"/>
      <path class="cls-19" d="m87.68434,60.79004c0,5.92139-3.71094,12.84277-10.45459,12.84277-5.56641,0-6.78857-3.72998-6.78857-6.49854,0-6.34424,4.11865-12.91992,10.81641-12.91992,5.6123,0,6.42676,3.96045,6.42676,6.57568Zm-11.63135,6.11377c0,1.38428.04541,3.07617,1.81055,3.07617,2.71533,0,4.25391-6.3833,4.25391-9.76709,0-1.26855-.40723-2.3457-1.76465-2.3457-2.44385,0-4.34473,5.80664-4.2998,9.03662Z"/>
      <path class="cls-19" d="m86.77858,80.70801l4.48047-19.99512c.49756-2.23047.85986-4.34521,1.17627-6.19092h4.84277l-.36182,2.72998h.09033c1.35791-1.88379,3.48486-3.0376,5.52148-3.0376,3.98242,0,4.75195,2.92236,4.75195,5.80615,0,6.30664-3.98242,13.6123-10.45459,13.6123-.99561,0-2.08154-.15381-2.71533-.46143h-.13574l-1.62939,7.53662h-5.56641Zm8.01025-11.11279c.45264.26904.90527.46143,1.58398.46143,3.43994,0,5.11426-6.38281,5.11426-9.18994,0-1.26904-.13574-2.57617-1.62939-2.57617-1.44824,0-2.98682,1.96094-3.52979,4.22949l-1.53906,7.0752Z"/>
      <path class="cls-19" d="m125.92458,49.44629l-1.13135,5.07568h4.16357l-.72412,3.38379h-4.20898l-1.9458,8.729c-.13574.65332-.18115,1.23047-.18115,1.57617,0,1.15381.67871,1.57666,1.71973,1.57666.40723,0,.99561,0,1.53906-.07666l-.6792,3.61426c-1.04102.23047-2.30811.30762-3.39404.30762-3.39453,0-5.06885-1.61523-5.06885-4.15283,0-.84619.18066-1.88428.40723-2.80713l1.9458-8.76709h-2.57959l.76953-3.38379h2.57959l.90527-3.8833,5.8833-1.19238Z"/>
      <path class="cls-19" d="m127.28102,73.3252l5.97412-26.60889h5.65723l-2.30811,10.11279h.09033c1.35791-1.49951,3.21338-2.61475,5.56689-2.61475,2.80566,0,4.02783,1.69189,4.02783,4.11475,0,1.07617-.22607,2.26855-.54297,3.69141l-2.53467,11.30469h-5.65723l2.58008-11.30469c.13574-.73096.27148-1.76904.27148-2.38428,0-.92285-.40723-1.49951-1.35791-1.49951-1.3125,0-3.03223,1.61475-3.66602,4.46045l-2.44385,10.72803h-5.65723Z"/>
      <path class="cls-19" d="m162.17409,72.51758c-1.94629.69238-3.84717,1.03809-6.38135,1.03809-5.43115,0-7.5127-3.0376-7.5127-7.0752,0-5.45996,3.5752-12.26611,10.63525-12.26611,4.02783,0,5.83838,2.53809,5.88379,5.11426,0,5.15283-4.88818,7.0752-11.04297,6.92139-.04541.53809,0,1.49951.49756,2.19189.54346.76904,1.53906,1.3457,3.07764,1.3457,1.85547,0,3.16797-.38428,4.48047-.92285l.3623,3.65283Zm-3.98291-14.45801c-1.71973,0-3.2583,1.88428-3.89209,4.57617,2.9873.11523,5.47607-.88477,5.47607-2.8457,0-1.07666-.49756-1.73047-1.58398-1.73047Z"/>
      <path class="cls-19" d="m182.62868,46.71631l-2.39844,10.15137h.09033c1.3125-1.65332,2.94189-2.65332,5.06884-2.65332,3.9375,0,4.57081,3.46094,4.57081,5.3833,0,7.03711-4.48047,14.03516-12.21924,14.03516-3.84717,0-5.65723-1.42285-5.65723-4.15283,0-.99951.22607-1.99951.36182-2.61475l4.61621-20.14893h5.56689Zm-4.70703,19.80273c-.13574.65381-.22607,1.23047-.22607,1.88428,0,1.03809.40723,1.73047,1.53857,1.73047,3.12305,0,4.93311-6.30615,4.93311-8.99805,0-1.61475-.18066-2.84521-1.67432-2.84521-1.53906,0-2.94189,1.80713-3.43945,3.80664l-1.13184,4.42188Z"/>
      <path class="cls-19" d="m210.59645,54.52197l-2.80566,12.65088c-.54297,2.23047-.85986,4.34521-1.13135,6.15234h-4.88818l.18115-2.49951-.09033-.07666c-1.62939,1.99951-3.66602,2.88379-5.74805,2.88379-2.94141,0-4.20898-1.88428-4.20898-4.34521,0-1.19189.22656-2.46094.54346-3.8833l2.39844-10.88232h5.65723l-2.39844,10.68994c-.22656,1.15332-.40771,2.11475-.40771,2.99902,0,.92285.40771,1.5,1.35791,1.5,1.44824,0,2.89648-1.61523,3.53027-4.30664l2.35303-10.88232h5.65723Z"/>
      <path class="cls-19" d="m222.13649,46.71631l-2.39844,10.15137h.09033c1.3125-1.65332,2.94189-2.65332,5.06885-2.65332,3.9375,0,4.5708,3.46094,4.5708,5.3833,0,7.03711-4.48047,14.03516-12.21924,14.03516-3.84717,0-5.65723-1.42285-5.65723-4.15283,0-.99951.22607-1.99951.36182-2.61475l4.61621-20.14893h5.56689Zm-4.70703,19.80273c-.13574.65381-.22607,1.23047-.22607,1.88428,0,1.03809.40723,1.73047,1.53857,1.73047,3.12305,0,4.93311-6.30615,4.93311-8.99805,0-1.61475-.18066-2.84521-1.67432-2.84521-1.53906,0-2.94189,1.80713-3.43945,3.80664l-1.13184,4.42188Z"/>
      <path class="cls-19" d="m241.77712,46.71631l-2.39844,10.15137h.09033c1.3125-1.65332,2.94189-2.65332,5.06885-2.65332,3.9375,0,4.5708,3.46094,4.5708,5.3833,0,7.03711-4.48047,14.03516-12.21924,14.03516-3.84716,0-5.65722-1.42285-5.65722-4.15283,0-.99951.22607-1.99951.36182-2.61475l4.61621-20.14893h5.56689Zm-4.70703,19.80273c-.13574.65381-.22607,1.23047-.22607,1.88428,0,1.03809.40723,1.73047,1.53857,1.73047,3.12305,0,4.93311-6.30615,4.93311-8.99805,0-1.61475-.18066-2.84521-1.67432-2.84521-1.53906,0-2.94189,1.80713-3.43945,3.80664l-1.13184,4.42188Z"/>
      <path class="cls-19" d="m249.92214,73.3252l5.97412-26.60889h5.65723l-5.97412,26.60889h-5.65723Z"/>
      <path class="cls-19" d="m274.58669,72.51758c-1.94629.69238-3.84717,1.03809-6.38135,1.03809-5.43115,0-7.5127-3.0376-7.5127-7.0752,0-5.45996,3.5752-12.26611,10.63525-12.26611,4.02832,0,5.83838,2.53809,5.88379,5.11426,0,5.15283-4.88818,7.0752-11.04297,6.92139-.04541.53809,0,1.49951.49805,2.19189.54297.76904,1.53857,1.3457,3.07715,1.3457,1.85547,0,3.16797-.38428,4.48047-.92285l.3623,3.65283Zm-3.98291-14.45801c-1.71973,0-3.2583,1.88428-3.89209,4.57617,2.9873.11523,5.47607-.88477,5.47607-2.8457,0-1.07666-.49756-1.73047-1.58398-1.73047Z"/>
      <path class="cls-19" d="m277.93483,69.21094c.90479.42285,1.99121.80762,3.5752.76904,1.62939-.03857,2.53467-.92285,2.53467-2.11475,0-1.03857-.58838-1.76904-2.12744-2.80713-1.90088-1.30762-2.80566-2.96094-2.80566-4.57568,0-3.46094,3.16797-6.26807,8.19141-6.26807,1.94629,0,3.34912.30762,4.16357.69238l-1.22168,3.49902c-.63379-.30762-1.6748-.57666-2.625-.57666-1.81055,0-2.94189.80762-2.94189,2.07617,0,.96143.63379,1.53809,1.6748,2.26855,2.48877,1.61523,3.30371,3.46094,3.30371,4.92188,0,4.15332-3.39453,6.45996-8.46338,6.45996-2.03662,0-3.84668-.49951-4.61621-.96094l1.35791-3.38379Z"/>
      <path class="cls-19" d="m298.70632,69.21094c.90479.42285,1.99121.80762,3.5752.76904,1.62939-.03857,2.53467-.92285,2.53467-2.11475,0-1.03857-.58838-1.76904-2.12744-2.80713-1.90088-1.30762-2.80566-2.96094-2.80566-4.57568,0-3.46094,3.16797-6.26807,8.19141-6.26807,1.94629,0,3.34912.30762,4.16357.69238l-1.22168,3.49902c-.63379-.30762-1.6748-.57666-2.625-.57666-1.81055,0-2.94189.80762-2.94189,2.07617,0,.96143.63379,1.53809,1.6748,2.26855,2.48877,1.61523,3.30371,3.46094,3.30371,4.92188,0,4.15332-3.39453,6.45996-8.46338,6.45996-2.03662,0-3.84668-.49951-4.61621-.96094l1.35791-3.38379Z"/>
      <path class="cls-19" d="m330.15944,60.79004c0,5.92139-3.71094,12.84277-10.45459,12.84277-5.56641,0-6.78857-3.72998-6.78857-6.49854,0-6.34424,4.11865-12.91992,10.81641-12.91992,5.6123,0,6.42676,3.96045,6.42676,6.57568Zm-11.63135,6.11377c0,1.38428.04541,3.07617,1.81055,3.07617,2.71533,0,4.25391-6.3833,4.25391-9.76709,0-1.26855-.40723-2.3457-1.76465-2.3457-2.44434,0-4.34473,5.80664-4.2998,9.03662Z"/>
      <path class="cls-19" d="m340.38649,73.3252l.9502-25.91699h5.88379l-.95068,11.65137c-.27148,2.84521-.6333,5.53711-.99561,8.34375h.13574c.76953-2.80664,1.76514-5.22949,2.89648-7.88232l5.29541-12.11279h5.15918l-.49756,11.57422c-.13574,2.76855-.40771,5.49902-.72412,8.4209h.09033c.81445-2.80664,1.71973-5.49854,2.625-8.07471l4.43506-11.92041h5.56689l-10.86182,25.91699h-5.97412v-8.69043c.04541-2.84521.22656-5.88281.58838-8.45898h-.09033c-1.04102,2.57617-2.12744,5.61377-3.9375,9.07422l-3.9375,8.0752h-5.65723Z"/>
      <path class="cls-19" d="m377.13503,73.3252c.04541-1,.13574-2.03809.18115-3.15332h-.13574c-1.76514,2.49951-3.89209,3.46094-5.65723,3.46094-3.21338,0-4.79736-2.3457-4.79736-5.65234,0-5.69092,3.34912-13.76611,12.85303-13.76611,2.21777,0,4.43554.30762,5.79297.76904l-2.44385,10.45898c-.54297,2.19189-.9502,5.84473-.90527,7.88281h-4.8877Zm2.03662-15.41943c-.45264-.07666-.85986-.11523-1.17676-.11523-3.71094,0-5.70215,6.26758-5.74756,9.03613,0,1.65381.27148,2.8457,1.67432,2.8457,1.53906,0,2.9873-2.15332,3.80176-5.57568l1.44824-6.19092Z"/>
      <path class="cls-19" d="m385.23513,73.3252l5.97412-26.60889h5.65723l-5.97412,26.60889h-5.65723Z"/>
      <path class="cls-19" d="m406.50515,49.44629l-1.13135,5.07568h4.16357l-.72412,3.38379h-4.20898l-1.9458,8.729c-.13574.65332-.18115,1.23047-.18115,1.57617,0,1.15381.67871,1.57666,1.71973,1.57666.40723,0,.99561,0,1.53906-.07666l-.6792,3.61426c-1.04102.23047-2.30811.30762-3.39404.30762-3.39453,0-5.06885-1.61523-5.06885-4.15283,0-.84619.18066-1.88428.40723-2.80713l1.9458-8.76709h-2.57959l.76953-3.38379h2.57959l.90527-3.8833,5.8833-1.19238Z"/>
      <path class="cls-19" d="m422.30007,72.51758c-1.94629.69238-3.84717,1.03809-6.38135,1.03809-5.43115,0-7.5127-3.0376-7.5127-7.0752,0-5.45996,3.5752-12.26611,10.63525-12.26611,4.02783,0,5.83838,2.53809,5.88379,5.11426,0,5.15283-4.88818,7.0752-11.04297,6.92139-.04541.53809,0,1.49951.49756,2.19189.54346.76904,1.53906,1.3457,3.07764,1.3457,1.85547,0,3.16797-.38428,4.48047-.92285l.3623,3.65283Zm-3.98291-14.45801c-1.71973,0-3.2583,1.88428-3.89209,4.57617,2.9873.11523,5.47607-.88477,5.47607-2.8457,0-1.07666-.49756-1.73047-1.58398-1.73047Z"/>
      <path class="cls-19" d="m424.83327,73.3252l2.85156-12.76611c.49756-2.15332.81445-4.30664,1.13135-6.03711h4.84229c-.09033.96143-.18066,1.96143-.31641,3.11475h.13574c1.62891-2.38379,3.62061-3.42236,5.47607-3.42236.36182,0,.6333,0,.90527.07715l-1.04102,4.80615c-.22656,0-.63379-.03809-.95068-.03809-2.44385,0-4.75195,2.38379-5.43066,5.5752l-1.94629,8.69043h-5.65723Z"/>
      <path class="cls-19" d="m465.74489,46.71631l-4.52588,20.41797c-.45264,1.99951-.85986,4.26807-1.13135,6.19092h-4.61621l.27148-2.76855h-.09033c-1.3125,1.92285-3.39453,3.07617-5.29541,3.07617-3.21289,0-5.02344-2.3457-5.02344-5.8833,0-6.5752,4.16357-13.53516,10.99756-13.53516.81445,0,1.49365.19238,1.99121.42334l1.81055-7.92139h5.61182Zm-8.14648,11.57422c-.31641-.26904-.81445-.46143-1.40283-.46143-3.21338,0-5.25,5.95996-5.25,9.07471,0,1.69189.49805,2.76855,1.85547,2.76855,1.3125,0,2.44434-1.46143,3.12305-3.46094l1.67432-7.9209Z"/>
      <path class="cls-19" d="m482.08181,60.79004c0,5.92139-3.71094,12.84277-10.45459,12.84277-5.56641,0-6.78857-3.72998-6.78857-6.49854,0-6.34424,4.11865-12.91992,10.81641-12.91992,5.6123,0,6.42676,3.96045,6.42676,6.57568Zm-11.63135,6.11377c0,1.38428.04541,3.07617,1.81055,3.07617,2.71533,0,4.25391-6.3833,4.25391-9.76709,0-1.26855-.40723-2.3457-1.76465-2.3457-2.44385,0-4.34473,5.80664-4.2998,9.03662Z"/>
      <path class="cls-19" d="m497.64919,72.51758c-1.94629.69238-3.84717,1.03809-6.38135,1.03809-5.43115,0-7.5127-3.0376-7.5127-7.0752,0-5.45996,3.5752-12.26611,10.63525-12.26611,4.02832,0,5.83838,2.53809,5.88379,5.11426,0,5.15283-4.88818,7.0752-11.04297,6.92139-.04541.53809,0,1.49951.49805,2.19189.54297.76904,1.53857,1.3457,3.07715,1.3457,1.85547,0,3.16797-.38428,4.48047-.92285l.3623,3.65283Zm-3.98291-14.45801c-1.71973,0-3.2583,1.88428-3.89209,4.57617,2.9873.11523,5.47607-.88477,5.47607-2.8457,0-1.07666-.49756-1.73047-1.58398-1.73047Z"/>
      <path class="cls-19" d="m500.99733,69.21094c.90479.42285,1.99121.80762,3.5752.76904,1.62939-.03857,2.53467-.92285,2.53467-2.11475,0-1.03857-.58838-1.76904-2.12744-2.80713-1.90088-1.30762-2.80566-2.96094-2.80566-4.57568,0-3.46094,3.16797-6.26807,8.19141-6.26807,1.94629,0,3.34912.30762,4.16357.69238l-1.22168,3.49902c-.63379-.30762-1.6748-.57666-2.625-.57666-1.81055,0-2.94189.80762-2.94189,2.07617,0,.96143.63379,1.53809,1.6748,2.26855,2.48877,1.61523,3.30371,3.46094,3.30371,4.92188,0,4.15332-3.39453,6.45996-8.46338,6.45996-2.03662,0-3.84668-.49951-4.61622-.96094l1.35792-3.38379Z"/>
      <path class="cls-19" d="m514.52761,73.3252l2.85156-12.68945c.49756-2.19141.85986-4.34473,1.17627-6.11377h4.84277l-.22607,2.42236h.09033c1.53857-1.76855,3.5752-2.72998,5.97412-2.72998,3.12256,0,4.29932,1.8457,4.29932,4.11475,0,1.11475-.22607,2.26855-.54297,3.57568l-2.53467,11.42041h-5.65723l2.625-11.68945c.13574-.65381.27148-1.26904.27148-1.99951,0-.88428-.45264-1.49951-1.40283-1.49951-1.3125,0-3.07764,1.65332-3.89209,5.22949l-2.21777,9.95898h-5.65723Z"/>
      <path class="cls-19" d="m546.07155,47.10059c-1.99121,3.46094-4.25439,6.92188-6.78857,9.69043l-3.43994.3457c1.9917-3.19141,3.9375-6.61377,5.11426-9.65137l5.11426-.38477Z"/>
      <path class="cls-19" d="m553.17653,49.44629l-1.13135,5.07568h4.16357l-.72412,3.38379h-4.20898l-1.9458,8.729c-.13574.65332-.18115,1.23047-.18115,1.57617,0,1.15381.67871,1.57666,1.71973,1.57666.40723,0,.99561,0,1.53906-.07666l-.6792,3.61426c-1.04102.23047-2.30811.30762-3.39404.30762-3.39453,0-5.06885-1.61523-5.06885-4.15283,0-.84619.18066-1.88428.40723-2.80713l1.9458-8.76709h-2.57959l.76953-3.38379h2.57959l.90527-3.8833,5.8833-1.19238Z"/>
      <path class="cls-19" d="m562.13601,76.5166c.90527.42285,2.39893.76904,3.53027.76904,3.21338,0,4.75195-1.8457,5.43066-4.49854l.49805-2.26904h-.09033c-1.49365,2.03809-3.21338,2.76855-4.97852,2.76855-3.07764,0-4.57129-2.46094-4.66162-5.3833-.13574-5.95996,3.98291-13.68896,12.12891-13.68896,2.53467,0,4.70703.46143,6.29102,1.11523l-3.5752,16.03467c-.72412,3.30664-1.90088,5.84473-3.80176,7.4209-1.81055,1.53809-4.34473,2.23047-7.46777,2.23047-1.71973,0-3.89209-.38477-4.75195-.8457l1.44824-3.65332Zm12.03857-18.37988c-.31689-.15381-.67871-.23096-1.17676-.23096-3.30371,0-5.47607,5.42188-5.52148,8.57471,0,1.42285.13574,2.99951,1.71973,2.99951,1.76514,0,3.03223-2.57617,3.39453-4.11426l1.58398-7.229Z"/>
      <path class="cls-19" d="m595.1736,72.51758c-1.94629.69238-3.84717,1.03809-6.38135,1.03809-5.43115,0-7.5127-3.0376-7.5127-7.0752,0-5.45996,3.5752-12.26611,10.63525-12.26611,4.02832,0,5.83838,2.53809,5.88379,5.11426,0,5.15283-4.88818,7.0752-11.04297,6.92139-.04541.53809,0,1.49951.49805,2.19189.54297.76904,1.53857,1.3457,3.07715,1.3457,1.85547,0,3.16797-.38428,4.48047-.92285l.3623,3.65283Zm-3.98291-14.45801c-1.71973,0-3.2583,1.88428-3.89209,4.57617,2.9873.11523,5.47607-.88477,5.47607-2.8457,0-1.07666-.49756-1.73047-1.58398-1.73047Z"/>
      <path class="cls-19" d="m609.15651,49.44629l-1.13135,5.07568h4.16357l-.72412,3.38379h-4.20898l-1.9458,8.729c-.13574.65332-.18115,1.23047-.18115,1.57617,0,1.15381.67871,1.57666,1.71973,1.57666.40723,0,.99561,0,1.53906-.07666l-.6792,3.61426c-1.04102.23047-2.30811.30762-3.39404.30762-3.39453,0-5.06885-1.61523-5.06885-4.15283,0-.84619.18066-1.88428.40723-2.80713l1.9458-8.76709h-2.57959l.76953-3.38379h2.57959l.90527-3.8833,5.8833-1.19238Z"/>
      <path class="cls-19" d="m110.44704,119.20068c-.63379.23047-2.08203.49951-3.9375.49951-4.8877,0-6.92432-3.30664-6.92432-6.76758,0-6.729,4.93311-12.53516,11.90283-12.53516,1.35742,0,2.21729.15381,2.76074.34619l-1.40332,3.92188c-.54297-.11523-1.08594-.19189-1.58398-.19189-3.30371,0-6.01904,3.76807-6.01904,7.76709,0,2.15332,1.04053,3.5376,2.89648,3.5376,1.04053,0,1.99121-.26904,2.71533-.42285l-.40723,3.84521Z"/>
      <path class="cls-19" d="m123.57106,119.46973c.04541-1,.13574-2.03809.18115-3.15332h-.13574c-1.76514,2.49951-3.89209,3.46094-5.65723,3.46094-3.21338,0-4.79736-2.3457-4.79736-5.65234,0-5.69092,3.34912-13.76611,12.85303-13.76611,2.21777,0,4.43555.30762,5.79297.76904l-2.44385,10.45898c-.54297,2.19189-.9502,5.84473-.90527,7.88281h-4.8877Zm2.03662-15.41943c-.45264-.07666-.85986-.11523-1.17676-.11523-3.71094,0-5.70215,6.26758-5.74756,9.03613,0,1.65381.27148,2.8457,1.67432,2.8457,1.53906,0,2.9873-2.15332,3.80176-5.57568l1.44824-6.19092Z"/>
      <path class="cls-19" d="m151.49392,100.6665l-2.80566,12.65088c-.54297,2.23047-.85986,4.34521-1.13135,6.15234h-4.88818l.18115-2.49951-.09033-.07666c-1.62939,1.99951-3.66602,2.88379-5.74805,2.88379-2.94141,0-4.20898-1.88428-4.20898-4.34521,0-1.19189.22656-2.46094.54346-3.8833l2.39844-10.88232h5.65723l-2.39844,10.68994c-.22656,1.15332-.40771,2.11475-.40771,2.99902,0,.92285.40771,1.5,1.35791,1.5,1.44824,0,2.89648-1.61523,3.53027-4.30664l2.35303-10.88232h5.65723Z"/>
      <path class="cls-19" d="m152.44362,122.66113c.90527.42285,2.39893.76904,3.53027.76904,3.21338,0,4.75195-1.8457,5.43066-4.49854l.49805-2.26904h-.09033c-1.49365,2.03809-3.21338,2.76855-4.97852,2.76855-3.07764,0-4.57129-2.46094-4.66162-5.3833-.13574-5.95996,3.98291-13.68896,12.12891-13.68896,2.53467,0,4.70703.46143,6.29102,1.11523l-3.5752,16.03467c-.72412,3.30664-1.90088,5.84473-3.80176,7.4209-1.81055,1.53809-4.34473,2.23047-7.46777,2.23047-1.71973,0-3.89209-.38477-4.75195-.8457l1.44824-3.65332Zm12.03857-18.37988c-.31689-.15381-.67871-.23096-1.17676-.23096-3.30371,0-5.47607,5.42188-5.52148,8.57471,0,1.42285.13574,2.99951,1.71973,2.99951,1.76514,0,3.03223-2.57617,3.39453-4.11426l1.58398-7.229Z"/>
      <path class="cls-19" d="m170.63601,119.46973l5.97412-26.60889h5.65723l-2.30811,10.11279h.09033c1.35791-1.49951,3.21338-2.61475,5.56689-2.61475,2.80615,0,4.02783,1.69189,4.02783,4.11475,0,1.07617-.22607,2.26855-.54297,3.69141l-2.53467,11.30469h-5.65723l2.58008-11.30469c.13574-.73096.27148-1.76904.27148-2.38428,0-.92285-.40771-1.49951-1.35791-1.49951-1.3125,0-3.03223,1.61475-3.66602,4.46045l-2.44385,10.72803h-5.65723Z"/>
      <path class="cls-19" d="m202.13405,95.59082l-1.13135,5.07568h4.16357l-.72412,3.38379h-4.20898l-1.9458,8.729c-.13574.65332-.18115,1.23047-.18115,1.57617,0,1.15381.67871,1.57666,1.71973,1.57666.40723,0,.99561,0,1.53906-.07666l-.6792,3.61426c-1.04102.23047-2.30811.30762-3.39404.30762-3.39453,0-5.06885-1.61523-5.06885-4.15283,0-.84619.18066-1.88428.40723-2.80713l1.9458-8.76709h-2.57959l.76953-3.38379h2.57959l.90527-3.8833,5.8833-1.19238Z"/>
      <path class="cls-19" d="m209.91726,119.46973l5.97412-26.60889h5.65723l-2.30811,10.11279h.09033c1.35791-1.49951,3.21338-2.61475,5.56689-2.61475,2.80615,0,4.02783,1.69189,4.02783,4.11475,0,1.07617-.22607,2.26855-.54297,3.69141l-2.53467,11.30469h-5.65723l2.58008-11.30469c.13574-.73096.27148-1.76904.27148-2.38428,0-.92285-.40771-1.49951-1.35791-1.49951-1.3125,0-3.03223,1.61475-3.66602,4.46045l-2.44385,10.72803h-5.65723Z"/>
      <path class="cls-19" d="m241.14382,119.46973c.04541-1,.13574-2.03809.18115-3.15332h-.13574c-1.76514,2.49951-3.89209,3.46094-5.65723,3.46094-3.21338,0-4.79736-2.3457-4.79736-5.65234,0-5.69092,3.34912-13.76611,12.85303-13.76611,2.21777,0,4.43555.30762,5.79297.76904l-2.44385,10.45898c-.54297,2.19189-.9502,5.84473-.90527,7.88281h-4.8877Zm2.03662-15.41943c-.45264-.07666-.85986-.11523-1.17676-.11523-3.71094,0-5.70215,6.26758-5.74756,9.03613,0,1.65381.27148,2.8457,1.67432,2.8457,1.53906,0,2.9873-2.15332,3.80176-5.57568l1.44824-6.19092Z"/>
      <path class="cls-19" d="m257.3904,100.6665l-.31689,8.61328c-.18115,2.57666-.18115,3.57617-.31689,5.34521h.09082c.58838-1.73047,1.04102-2.76855,1.9458-5.0376l3.84717-8.9209h5.65723l-9.95703,18.80322h-5.65674l-1.26758-18.80322h5.97412Z"/>
      <path class="cls-19" d="m266.44069,119.46973l4.25439-18.80322h5.65723l-4.25439,18.80322h-5.65723Zm5.29541-23.60938c0-1.38477,1.17676-2.96094,3.16797-2.96094,1.85547,0,2.71533,1.19189,2.66992,2.49902-.04492,1.92285-1.58398,2.99951-3.2583,2.99951-1.81055,0-2.625-1.11523-2.57959-2.5376Z"/>
      <path class="cls-19" d="m276.30593,119.46973l2.85156-12.68945c.49756-2.19141.85986-4.34473,1.17627-6.11377h4.84277l-.22607,2.42236h.09033c1.53857-1.76855,3.5752-2.72998,5.97412-2.72998,3.12256,0,4.29932,1.8457,4.29932,4.11475,0,1.11475-.22607,2.26855-.54297,3.57568l-2.53467,11.42041h-5.65723l2.625-11.68945c.13574-.65381.27148-1.26904.27148-1.99951,0-.88428-.45264-1.49951-1.40283-1.49951-1.3125,0-3.07764,1.65332-3.89209,5.22949l-2.21777,9.95898h-5.65723Z"/>
      <path class="cls-19" d="m297.53054,122.66113c.90527.42285,2.39893.76904,3.53027.76904,3.21338,0,4.75195-1.8457,5.43066-4.49854l.49805-2.26904h-.09033c-1.49365,2.03809-3.21338,2.76855-4.97852,2.76855-3.07764,0-4.57129-2.46094-4.66162-5.3833-.13574-5.95996,3.98291-13.68896,12.12891-13.68896,2.53467,0,4.70703.46143,6.29102,1.11523l-3.5752,16.03467c-.72412,3.30664-1.90088,5.84473-3.80176,7.4209-1.81055,1.53809-4.34473,2.23047-7.46777,2.23047-1.71973,0-3.89209-.38477-4.75195-.8457l1.44824-3.65332Zm12.03857-18.37988c-.31689-.15381-.67871-.23096-1.17676-.23096-3.30371,0-5.47607,5.42188-5.52148,8.57471,0,1.42285.13574,2.99951,1.71973,2.99951,1.76514,0,3.03223-2.57617,3.39453-4.11426l1.58398-7.229Z"/>
      <path class="cls-19" d="m333.3279,119.46973c.04541-1,.13574-2.03809.18115-3.15332h-.13574c-1.76514,2.49951-3.89209,3.46094-5.65723,3.46094-3.21338,0-4.79736-2.3457-4.79736-5.65234,0-5.69092,3.34912-13.76611,12.85303-13.76611,2.21777,0,4.43555.30762,5.79297.76904l-2.44385,10.45898c-.54297,2.19189-.9502,5.84473-.90527,7.88281h-4.8877Zm2.03662-15.41943c-.45264-.07666-.85986-.11523-1.17676-.11523-3.71094,0-5.70215,6.26758-5.74756,9.03613,0,1.65381.27148,2.8457,1.67432,2.8457,1.53906,0,2.9873-2.15332,3.80176-5.57568l1.44824-6.19092Z"/>
      <path class="cls-19" d="m347.85427,119.46973l2.85156-12.76611c.49756-2.15332.81445-4.30664,1.13135-6.03711h4.84229c-.09033.96143-.18066,1.96143-.31641,3.11475h.13574c1.62891-2.38379,3.62061-3.42236,5.47607-3.42236.36182,0,.6333,0,.90527.07715l-1.04102,4.80615c-.22656,0-.63379-.03809-.95068-.03809-2.44385,0-4.75195,2.38379-5.43066,5.5752l-1.94629,8.69043h-5.65723Z"/>
      <path class="cls-19" d="m375.68727,118.66211c-1.94629.69238-3.84717,1.03809-6.38135,1.03809-5.43115,0-7.5127-3.0376-7.5127-7.0752,0-5.45996,3.5752-12.26611,10.63525-12.26611,4.02832,0,5.83838,2.53809,5.88379,5.11426,0,5.15283-4.88818,7.0752-11.04297,6.92139-.04541.53809,0,1.49951.49805,2.19189.54297.76904,1.53857,1.3457,3.07715,1.3457,1.85547,0,3.16797-.38428,4.48047-.92285l.3623,3.65283Zm-3.98291-14.45801c-1.71973,0-3.2583,1.88428-3.89209,4.57617,2.9873.11523,5.47607-.88477,5.47607-2.8457,0-1.07666-.49756-1.73047-1.58398-1.73047Z"/>
      <path class="cls-19" d="m378.22048,119.46973l5.97412-26.60889h5.65723l-5.97412,26.60889h-5.65723Z"/>
      <path class="cls-19" d="m399.2195,119.46973c.04541-1,.13574-2.03809.18115-3.15332h-.13574c-1.76514,2.49951-3.89209,3.46094-5.65723,3.46094-3.21338,0-4.79736-2.3457-4.79736-5.65234,0-5.69092,3.34912-13.76611,12.85303-13.76611,2.21777,0,4.43555.30762,5.79297.76904l-2.44385,10.45898c-.54297,2.19189-.9502,5.84473-.90527,7.88281h-4.8877Zm2.03662-15.41943c-.45264-.07666-.85986-.11523-1.17676-.11523-3.71094,0-5.70215,6.26758-5.74756,9.03613,0,1.65381.27148,2.8457,1.67432,2.8457,1.53906,0,2.9873-2.15332,3.80176-5.57568l1.44824-6.19092Z"/>
      <path class="cls-19" d="m415.01345,100.6665l.67871,3.38379c.27197,1.53809.27197,2.46094.3623,3.19189h.13574c.40723-.80762.99561-1.88428,1.58398-2.92285l2.17236-3.65283h5.83838l-7.28662,9.38232,2.94189,9.4209h-5.79297l-.72412-3.30664c-.27148-1.30762-.40723-1.96143-.54297-3.30713h-.09082c-.36182.73047-.76904,1.53809-1.58398,2.99951l-2.12695,3.61426h-5.83838l7.33203-9.53613-2.89648-9.26709h5.83789Z"/>
      <path class="cls-19" d="m423.2488,119.46973l4.25439-18.80322h5.65723l-4.25439,18.80322h-5.65723Zm5.29541-23.60938c0-1.38477,1.17676-2.96094,3.16797-2.96094,1.85547,0,2.71533,1.19189,2.66992,2.49902-.04492,1.92285-1.58398,2.99951-3.2583,2.99951-1.81055,0-2.625-1.11523-2.57959-2.5376Z"/>
      <path class="cls-19" d="m433.11403,119.46973l2.85156-12.68945c.49756-2.19141.85986-4.34473,1.17676-6.11377h4.84229l-.22607,2.42236h.09033c1.53857-1.76855,3.5752-2.72998,5.97412-2.72998,3.12256,0,4.29932,1.8457,4.29932,4.11475,0,1.11475-.22607,2.26855-.54297,3.57568l-2.53467,11.42041h-5.65723l2.625-11.68945c.13574-.65381.27148-1.26904.27148-1.99951,0-.88428-.45215-1.49951-1.40283-1.49951-1.3125,0-3.07764,1.65332-3.89209,5.22949l-2.21777,9.95898h-5.65723Z"/>
      <path class="cls-19" d="m454.33913,122.66113c.90527.42285,2.39893.76904,3.53027.76904,3.21338,0,4.75195-1.8457,5.43066-4.49854l.49805-2.26904h-.09033c-1.49365,2.03809-3.21338,2.76855-4.97852,2.76855-3.07764,0-4.57129-2.46094-4.66162-5.3833-.13574-5.95996,3.98291-13.68896,12.12891-13.68896,2.53467,0,4.70703.46143,6.29102,1.11523l-3.5752,16.03467c-.72412,3.30664-1.90088,5.84473-3.80176,7.4209-1.81055,1.53809-4.34473,2.23047-7.46777,2.23047-1.71973,0-3.89209-.38477-4.75195-.8457l1.44824-3.65332Zm12.03857-18.37988c-.31689-.15381-.67871-.23096-1.17676-.23096-3.30371,0-5.47607,5.42188-5.52148,8.57471,0,1.42285.13574,2.99951,1.71973,2.99951,1.76514,0,3.03223-2.57617,3.39453-4.11426l1.58398-7.229Z"/>
      <path class="cls-19" d="m490.45339,92.86084l-2.39893,10.15137h.09082c1.3125-1.65332,2.94189-2.65332,5.06885-2.65332,3.9375,0,4.5708,3.46094,4.5708,5.3833,0,7.03711-4.48047,14.03516-12.21924,14.03516-3.84717,0-5.65723-1.42285-5.65723-4.15283,0-.99951.22607-1.99951.36182-2.61475l4.61621-20.14893h5.56689Zm-4.70703,19.80273c-.13574.65381-.22607,1.23047-.22607,1.88428,0,1.03809.40723,1.73047,1.53857,1.73047,3.12305,0,4.93311-6.30615,4.93311-8.99805,0-1.61475-.18066-2.84521-1.67432-2.84521-1.53857,0-2.94189,1.80713-3.43945,3.80664l-1.13184,4.42188Z"/>
      <path class="cls-19" d="m509.77663,119.46973c.04541-1,.13574-2.03809.18115-3.15332h-.13574c-1.76514,2.49951-3.89209,3.46094-5.65723,3.46094-3.21338,0-4.79736-2.3457-4.79736-5.65234,0-5.69092,3.34912-13.76611,12.85303-13.76611,2.21777,0,4.43555.30762,5.79297.76904l-2.44385,10.45898c-.54297,2.19189-.9502,5.84473-.90527,7.88281h-4.8877Zm2.03662-15.41943c-.45264-.07666-.85986-.11523-1.17676-.11523-3.71094,0-5.70215,6.26758-5.74756,9.03613,0,1.65381.27148,2.8457,1.67432,2.8457,1.53906,0,2.9873-2.15332,3.80176-5.57568l1.44824-6.19092Z"/>
      <path class="cls-19" d="m529.91481,95.59082l-1.13135,5.07568h4.16357l-.72412,3.38379h-4.20898l-1.9458,8.729c-.13574.65332-.18115,1.23047-.18115,1.57617,0,1.15381.67871,1.57666,1.71973,1.57666.40723,0,.99561,0,1.53906-.07666l-.6792,3.61426c-1.04102.23047-2.30811.30762-3.39404.30762-3.39453,0-5.06885-1.61523-5.06885-4.15283,0-.84619.18066-1.88428.40723-2.80713l1.9458-8.76709h-2.57959l.76953-3.38379h2.57959l.90527-3.8833,5.8833-1.19238Z"/>
      <path class="cls-19" d="m531.27126,119.46973l5.97412-26.60889h5.65723l-2.30811,10.11279h.09033c1.35791-1.49951,3.21338-2.61475,5.56689-2.61475,2.80566,0,4.02783,1.69189,4.02783,4.11475,0,1.07617-.22607,2.26855-.54297,3.69141l-2.53467,11.30469h-5.65723l2.58008-11.30469c.13574-.73096.27148-1.76904.27148-2.38428,0-.92285-.40723-1.49951-1.35791-1.49951-1.3125,0-3.03223,1.61475-3.66602,4.46045l-2.44385,10.72803h-5.65723Z"/>
      <path class="cls-19" d="m551.81765,116.85498c0-1.53809,1.62939-3.30713,3.52979-3.30713,2.12744,0,3.25879,1.30762,3.25879,2.8457,0,1.99951-1.76514,3.38379-3.66602,3.38379-1.99121,0-3.12256-1.30762-3.12256-2.92236Zm2.17236-5.80615l3.2583-17.49609h6.38135l-4.70654,17.49609h-4.93311Z"/>
    </g>
  </g>
  <g id="CAUGHT">
    <g>
      <rect class="cls-17" x="29.37902" y="28.67383" width="601.96729" height="112.87402" rx="11" ry="11"/>
      <path class="cls-19" d="m620.34636,29.67392c5.51404,0,10,4.486,10,10v90.87384c0,5.51399-4.48596,10-10,10H40.37888c-5.514,0-10-4.48601-10-10V39.67392c0-5.514,4.486-10,10-10h579.96748m0-2H40.37888c-6.6,0-12,5.4-12,12v90.87384c0,6.59999,5.4,12,12,12h579.96748c6.60004,0,12-5.40001,12-12V39.67392c0-6.6-5.39996-12-12-12h0Z"/>
    </g>
    <g>
      <path class="cls-19" d="m84.88356,72.24086c0,7.89025-3.05175,17.82313-8.8309,22.73365-2.72739,2.31749-5.84471,3.53148-9.67562,3.53148-9.481,0-10.8447-8.05598-10.8447-12.13921,0-7.55947,3.05244-17.49167,9.09108-22.51335,2.59765-2.15176,5.77984-3.421,9.61075-3.421,9.481,0,10.64939,7.39374,10.64939,11.80843Zm-14.67561-4.57974c-4.02622,3.47624-6.29882,13.84971-6.29882,19.3679,0,2.09652.32505,5.40771,3.70186,5.40771.9089,0,1.88267-.3867,2.66183-1.10418,4.35127-3.64129,6.23394-15.61545,6.23394-19.64344,0-2.37273-.38923-5.18674-3.37681-5.18674-1.03865,0-2.01242.38602-2.92201,1.15875Z"/>
      <path class="cls-19" d="m84.56127,98.06473l8.57141-38.18404h8.11731l-3.31193,14.51194h.12974c1.94824-2.15176,4.61076-3.75178,7.98756-3.75178,4.02622,0,5.77915,2.4273,5.77915,5.90421,0,1.54477-.32436,3.25527-.77916,5.29722l-3.63629,16.22244h-8.11731l3.70186-16.22244c.19462-1.04893.38923-2.53846.38923-3.42167,0-1.3238-.58454-2.15176-1.94824-2.15176-1.88267,0-4.35058,2.31749-5.25948,6.40072l-3.50655,15.39515h-8.11731Z"/>
      <path class="cls-19" d="m122.55223,98.06473l4.09109-18.20915c.71428-3.14546,1.23395-6.235,1.68806-8.77346h6.94823l-.32436,3.47624h.12974c2.20773-2.53846,5.12974-3.9175,8.57141-3.9175,4.48101,0,6.16907,2.64827,6.16907,5.90421,0,1.60001-.32436,3.25527-.77916,5.13149l-3.63629,16.38817h-8.11731l3.76673-16.77487c.19462-.93778.38923-1.82031.38923-2.86924,0-1.26856-.64941-2.15176-2.01311-2.15176-1.88267,0-4.41545,2.37273-5.58453,7.50423l-3.1815,14.29165h-8.11731Z"/>
      <path class="cls-19" d="m177.36027,80.07654c0,8.49725-5.32435,18.42945-14.99997,18.42945-7.98756,0-9.74049-5.35246-9.74049-9.32521,0-9.10424,5.90889-18.53993,15.51964-18.53993,8.05244,0,9.22082,5.68324,9.22082,9.43569Zm-16.68872,8.77346c0,1.98604.06487,4.41401,2.59765,4.41401,3.89647,0,6.1042-9.15948,6.1042-14.01544,0-1.82098-.58454-3.36575-2.53278-3.36575-3.50655,0-6.23394,8.33219-6.16907,12.96717Z"/>
      <path class="cls-19" d="m179.11596,94.31228c0-2.20701,2.33747-4.74547,5.06486-4.74547,3.05244,0,4.67563,1.87623,4.67563,4.08391,0,2.86924-2.53278,4.85528-5.26017,4.85528-2.85714,0-4.48032-1.87623-4.48032-4.19372Zm3.11663-8.33152l4.67563-25.10706h9.15595l-6.75292,25.10706h-7.07866Z"/>
      <path class="cls-19" d="m207.36504,98.06473l1.3637-37.19103h8.44167l-1.3637,16.71962c-.38923,4.08323-.9089,7.94549-1.42857,11.97348h.19531c1.10352-4.02799,2.53209-7.50423,4.15596-11.31125l7.59764-17.38186h7.40233l-.71428,16.60914c-.19462,3.97275-.58454,7.89092-1.03865,12.08397h.12974c1.16908-4.02799,2.4679-7.89025,3.76604-11.58746l6.36438-17.10565h7.98687l-15.58451,37.19103h-8.5721v-12.47067c.06487-4.08323.32505-8.442.84472-12.13921h-.13043c-1.49344,3.69721-3.05175,8.05598-5.6494,13.02242l-5.6494,11.58746h-8.11731Z"/>
      <path class="cls-19" d="m260.09787,98.06473c.06487-1.43496.19462-2.92449.25949-4.5245h-.19462c-2.53209,3.58672-5.58453,4.96576-8.11731,4.96576-4.61007,0-6.88267-3.36575-6.88267-8.11122,0-8.16646,4.80468-19.75392,18.44165-19.75392,3.18219,0,6.36369.44127,8.31192,1.1035l-3.50655,15.00845c-.77916,3.14546-1.3637,8.38743-1.29882,11.31192h-7.0131Zm2.92201-22.12666c-.64941-.11049-1.23326-.16573-1.68806-.16573-5.32504,0-8.18218,8.99443-8.24705,12.96717,0,2.37273.38992,4.08323,2.40234,4.08323,2.20842,0,4.2864-3.09021,5.45479-8.00141l2.07798-8.88327Z"/>
      <path class="cls-19" d="m271.72379,98.06473l8.57141-38.18404h8.11731l-8.57141,38.18404h-8.11731Z"/>
      <path class="cls-19" d="m302.24548,63.79819l-1.62388,7.28393h5.97445l-1.03934,4.85595h-6.03864l-2.79227,12.52523c-.19531.93845-.26018,1.76574-.26018,2.26225,0,1.65593.97446,2.26292,2.4679,2.26292.58454,0,1.42857,0,2.20773-.11049l-.97377,5.18674c-1.49413.33078-3.31193.44127-4.87025.44127-4.87025,0-7.27328-2.31749-7.27328-5.95946,0-1.21399.25949-2.70352.58454-4.02799l2.79227-12.58048h-3.70117l1.10352-4.85595h3.70186l1.29813-5.57343,8.44236-1.7105Z"/>
      <path class="cls-19" d="m324.91003,96.90598c-2.79227.99302-5.51966,1.48953-9.15664,1.48953-7.79226,0-10.77914-4.35877-10.77914-10.1525,0-7.83568,5.12974-17.60216,15.26015-17.60216,5.77915,0,8.3768,3.64129,8.44167,7.3385,0,7.39442-7.0131,10.15317-15.84469,9.9322-.06487.77272,0,2.15244.71428,3.14546.77916,1.1035,2.20773,1.93147,4.41614,1.93147,2.66183,0,4.5452-.55175,6.42856-1.32447l.51967,5.24198Zm-5.71497-20.74761c-2.46721,0-4.67494,2.70419-5.58453,6.56645,4.2864.16573,7.85782-1.26923,7.85782-4.08323,0-1.54477-.71428-2.48322-2.27329-2.48322Z"/>
      <path class="cls-19" d="m328.54771,98.06473l4.09109-18.31964c.71428-3.09021,1.16839-6.17975,1.62319-8.66297h6.94823c-.12974,1.37972-.25949,2.814-.45411,4.46926h.19462c2.33747-3.421,5.19461-4.91052,7.85713-4.91052.51967,0,.9089,0,1.29882.10981l-1.49344,6.89791c-.32505,0-.9089-.05524-1.3637-.05524-3.50655,0-6.81848,3.421-7.79226,8.00074l-2.79227,12.47067h-8.11731Z"/>
      <path class="cls-19" d="m358.54972,102.64447c1.29882.60699,3.44168,1.1035,5.06555,1.1035,4.61007,0,6.81848-2.64827,7.79226-6.45597l.71428-3.25527h-.12974c-2.14285,2.92449-4.61076,3.97275-7.14353,3.97275-4.41545,0-6.5583-3.53148-6.68805-7.7252-.19462-8.55249,5.71428-19.64344,17.403-19.64344,3.63629,0,6.75361.66156,9.02621,1.60001l-5.12974,23.00986c-1.03934,4.74547-2.72739,8.38743-5.45479,10.64968-2.59765,2.20701-6.23394,3.20002-10.71496,3.20002-2.46721,0-5.58453-.55175-6.81848-1.21399l2.07798-5.24198Zm17.27326-26.37562c-.45411-.22097-.97377-.33078-1.68806-.33078-4.7405,0-7.85713,7.77977-7.92269,12.30494,0,2.04128.19531,4.30353,2.4679,4.30353,2.53278,0,4.35058-3.69653,4.87025-5.90421l2.2726-10.37347Z"/>
      <path class="cls-19" d="m410.69593,80.07654c0,8.49725-5.32435,18.42945-14.99997,18.42945-7.98756,0-9.74049-5.35246-9.74049-9.32521,0-9.10424,5.90889-18.53993,15.51964-18.53993,8.05244,0,9.22082,5.68324,9.22082,9.43569Zm-16.68872,8.77346c0,1.98604.06487,4.41401,2.59765,4.41401,3.89647,0,6.1042-9.15948,6.1042-14.01544,0-1.82098-.58454-3.36575-2.53278-3.36575-3.50655,0-6.23394,8.33219-6.16907,12.96717Z"/>
      <path class="cls-19" d="m428.16657,63.79819l-1.62388,7.28393h5.97445l-1.03934,4.85595h-6.03864l-2.79227,12.52523c-.19531.93845-.26018,1.76574-.26018,2.26225,0,1.65593.97446,2.26292,2.4679,2.26292.58454,0,1.42857,0,2.20773-.11049l-.97377,5.18674c-1.49413.33078-3.31193.44127-4.87025.44127-4.87025,0-7.27328-2.31749-7.27328-5.95946,0-1.21399.25949-2.70352.58454-4.02799l2.79227-12.58048h-3.70117l1.10352-4.85595h3.70186l1.29813-5.57343,8.44236-1.7105Z"/>
      <path class="cls-19" d="m456.28522,97.6787c-.9089.33078-2.98688.71681-5.6494.71681-7.0131,0-9.93511-4.74479-9.93511-9.71123,0-9.65666,7.07797-17.98886,17.07864-17.98886,1.94755,0,3.1815.22097,3.96066.49718l-2.01311,5.628c-.77916-.16573-1.55831-.27554-2.2726-.27554-4.7405,0-8.63628,5.40703-8.63628,11.14619,0,3.08954,1.49344,5.07625,4.15596,5.07625,1.49344,0,2.85714-.38602,3.89578-.60699l-.58454,5.51819Z"/>
      <path class="cls-19" d="m475.11886,98.06473c.06487-1.43496.19462-2.92449.25949-4.5245h-.19462c-2.53209,3.58672-5.58453,4.96576-8.11731,4.96576-4.61007,0-6.88267-3.36575-6.88267-8.11122,0-8.16646,4.80468-19.75392,18.44165-19.75392,3.18219,0,6.36369.44127,8.31192,1.1035l-3.50655,15.00845c-.77916,3.14546-1.3637,8.38743-1.29882,11.31192h-7.0131Zm2.92201-22.12666c-.64941-.11049-1.23326-.16573-1.68806-.16573-5.32504,0-8.18218,8.99443-8.24705,12.96717,0,2.37273.38992,4.08323,2.40234,4.08323,2.20842,0,4.2864-3.09021,5.45479-8.00141l2.07798-8.88327Z"/>
      <path class="cls-19" d="m515.18711,71.08212l-4.02622,18.15391c-.77916,3.2007-1.23395,6.235-1.62319,8.8287h-7.0131l.25949-3.58672-.12974-.11049c-2.33816,2.86924-5.26017,4.13847-8.24705,4.13847-4.22083,0-6.03933-2.70352-6.03933-6.235,0-1.7105.32505-3.53148.77916-5.57343l3.44168-15.61545h8.11731l-3.44168,15.33991c-.32436,1.65525-.58454,3.03497-.58454,4.30353,0,1.32447.58454,2.15244,1.94824,2.15244,2.07798,0,4.15596-2.31749,5.06486-6.18043l3.37681-15.61545h8.11731Z"/>
      <path class="cls-19" d="m516.55288,102.64447c1.29882.60699,3.44168,1.1035,5.06555,1.1035,4.61007,0,6.81779-2.64827,7.79226-6.45597l.71428-3.25527h-.12974c-2.14285,2.92449-4.61076,3.97275-7.14353,3.97275-4.41545,0-6.5583-3.53148-6.68805-7.7252-.19531-8.55249,5.71428-19.64344,17.403-19.64344,3.63629,0,6.75361.66156,9.02621,1.60001l-5.12974,23.00986c-1.03934,4.74547-2.72739,8.38743-5.45479,10.64968-2.59765,2.20701-6.23394,3.20002-10.71496,3.20002-2.46721,0-5.58453-.55175-6.81848-1.21399l2.07798-5.24198Zm17.27326-26.37562c-.45411-.22097-.97377-.33078-1.68806-.33078-4.7405,0-7.85782,7.77977-7.92269,12.30494,0,2.04128.19531,4.30353,2.4679,4.30353,2.53278,0,4.35058-3.69653,4.87025-5.90421l2.2726-10.37347Z"/>
      <path class="cls-19" d="m542.6598,98.06473l8.57141-38.18404h8.11731l-3.31193,14.51194h.12974c1.94824-2.15176,4.61076-3.75178,7.98756-3.75178,4.02622,0,5.77915,2.4273,5.77915,5.90421,0,1.54477-.32436,3.25527-.77916,5.29722l-3.63629,16.22244h-8.11731l3.70186-16.22244c.19462-1.04893.38923-2.53846.38923-3.42167,0-1.3238-.58454-2.15176-1.94824-2.15176-1.88267,0-4.35058,2.31749-5.25948,6.40072l-3.50655,15.39515h-8.11731Z"/>
      <path class="cls-19" d="m587.85848,63.79819l-1.62388,7.28393h5.97445l-1.03934,4.85595h-6.03864l-2.79227,12.52523c-.19531.93845-.26018,1.76574-.26018,2.26225,0,1.65593.97446,2.26292,2.4679,2.26292.58454,0,1.42857,0,2.20773-.11049l-.97377,5.18674c-1.49413.33078-3.31193.44127-4.87025.44127-4.87025,0-7.27328-2.31749-7.27328-5.95946,0-1.21399.25949-2.70352.58454-4.02799l2.79227-12.58048h-3.70117l1.10352-4.85595h3.70186l1.29813-5.57343,8.44236-1.7105Z"/>
      <path class="cls-19" d="m590.52169,94.31228c0-2.20701,2.33747-4.74547,5.06486-4.74547,3.05244,0,4.67563,1.87623,4.67563,4.08391,0,2.86924-2.53278,4.85528-5.26017,4.85528-2.85714,0-4.48032-1.87623-4.48032-4.19372Zm3.11663-8.33152l4.67563-25.10706h9.15595l-6.75292,25.10706h-7.07866Z"/>
    </g>
  </g>
  <g id="PLAY">
    <rect class="cls-12" x="265.42193" y="158.00207" width="129.88141" height="57.87392" rx="12" ry="12"/>
    <text class="cls-27" transform="translate(288.01642 205.87331)"><tspan x="0" y="0">P</tspan><tspan class="cls-28" x="23.4585" y="0">L</tspan><tspan class="cls-29" x="42.68506" y="0">A</tspan><tspan x="64.31592" y="0">Y</tspan></text>
  </g>
  <g id="RETRY">
    <rect class="cls-12" x="257.91001" y="158.00207" width="142.10554" height="57.87392" rx="12" ry="12"/>
    <g>
      <path class="cls-19" d="m276.26374,170.25537c2.1001-.3501,4.4502-.6001,6.70068-.6001,2.8999,0,5.7002.5498,7.4502,2.30029,1.40039,1.3999,2.2002,3.3501,2.2002,5.55029,0,4.9502-3,8.90039-6.85059,10.20068v.09961c1.8501.8501,2.65039,2.80029,2.75049,6.55078.1001,3.75.19971,7.90039.5498,9.15039h-6.30029c-.1499-.9502-.25-4.3501-.25-8.05029,0-4.10059-.8501-5.45068-2.9502-5.45068h-1.0498l-2.50049,13.50098h-6.1001l6.3501-33.25195Zm3.25049,14.90088h1.44971c3.15039,0,5.25049-3.3501,5.25049-6.90039,0-1.80029-.75-3.7002-3.1001-3.7002-.6499,0-1.25.0498-1.6499.1499l-1.9502,10.45068Z"/>
      <path class="cls-19" d="m309.41461,188.60645h-7.40039l-1.8501,9.35059h8.50049l-1.1001,5.55029h-14.70068l6.4502-33.70215h14.10107l-1.1001,5.50049h-7.75049l-1.65039,8.00049h7.55078l-1.05029,5.30029Z"/>
      <path class="cls-19" d="m320.51374,175.70557h-5.8501l1.1499-5.90039h17.95117l-1.15039,5.90039h-5.8501l-5.30029,27.80176h-6.25049l5.30029-27.80176Z"/>
      <path class="cls-19" d="m337.06305,170.25537c2.1001-.3501,4.4502-.6001,6.70068-.6001,2.8999,0,5.7002.5498,7.4502,2.30029,1.40039,1.3999,2.2002,3.3501,2.2002,5.55029,0,4.9502-3,8.90039-6.85059,10.20068v.09961c1.85059.8501,2.65039,2.80029,2.75049,6.55078.1001,3.75.19971,7.90039.5498,9.15039h-6.30029c-.1499-.9502-.25-4.3501-.25-8.05029,0-4.10059-.8501-5.45068-2.9502-5.45068h-1.0498l-2.50049,13.50098h-6.1001l6.3501-33.25195Zm3.25049,14.90088h1.44971c3.15039,0,5.25049-3.3501,5.25049-6.90039,0-1.80029-.75-3.7002-3.1001-3.7002-.6499,0-1.25.0498-1.6499.1499l-1.9502,10.45068Z"/>
      <path class="cls-19" d="m357.16315,203.50732l2.4502-12.90088-3.30029-20.80127h6.70068l.69971,8.05078c.25,3.6499.25,5.8501.25,7.2002h.1001c.75-2.1001,1.55029-4.30029,2.7002-6.80029l3.90039-8.45068h6.55029l-11.40088,20.85156-2.3999,12.85059h-6.25049Z"/>
      <path class="cls-19" d="m374.51325,200.10693c0-2,1.8501-4.30029,3.8999-4.30029,2.40039,0,3.65039,1.7002,3.65039,3.70068,0,2.6001-1.9502,4.3999-4.15039,4.3999-2.1001,0-3.3999-1.7002-3.3999-3.80029Zm2.1499-7.15039c.05029-.2998.1001-.6001.1001-.8999.25-2.90039,1.7002-5.60059,4.15039-8.55029,1.6499-2.05029,3.1499-3.85059,3.1499-5.95068,0-1.6499-.8999-2.7002-2.7998-2.7002-1.15039,0-2.50049.30029-3.50049.9502l-.2002-5.00049c1.2002-.69971,3.55029-1.3999,5.85059-1.3999,6.35059,0,7.30029,4.2002,7.30029,6.55029,0,4.00049-3.0498,7.55078-4.90039,9.80078-1.75,2.1001-2.8501,3.80029-3.25,6.15039-.1001.3501-.1499.69971-.25,1.0498h-5.65039Z"/>
    </g>
  </g>
  <path class="cls-6" d="m1140.07692,452.10039v.47314h-554v-.45337c-.98383-.12805-1.98267-.21338-3-.21338-13.25,0-24,10.75-24,24,0,11.22998,7.72998,20.67004,18.15997,23.27002,4.95001,85.37012,129.91003,153.72998,283.34003,153.72998,153.59003,0,278.65002-68.5,283.35999-154,9.91003-2.94995,17.14001-12.13989,17.14001-23,0-12.23315-9.16583-22.32812-21-23.8064Z"/>
</svg>